<?xml version="1.0" encoding="utf-8"?>
<!-- Uploaded to: SVG Repo, www.svgrepo.com, Generator: SVG Repo Mixer Tools -->
<svg width="800px" height="800px" viewBox="0 -33.62 407.019 407.019" xmlns="http://www.w3.org/2000/svg"><defs><style>.a{fill:#ffffff;}.b{fill:#ad7b59;}.c{fill:#f4b467;}.d{fill:#645d5c;}.e{fill:#211715;}.f{fill:none;}.g{fill:#957f6e;}.h{fill:#b3b3b3;}.i{fill:#79c6e0;}</style></defs><path class="a" d="M298.1,292.131h62.851a173.38,173.38,0,0,0,.267,21.168,77.631,77.631,0,0,0,1.733,12.913c.761,2.986,1.3,6.389,2.947,8.731H291.234A170.322,170.322,0,0,1,293.582,313c1.2-6.794,3.036-15.447,4.521-20.659"/><path class="b" d="M353.348,176c-1.11-.784-2.364-1.715-3.63-2.747A38.787,38.787,0,0,0,360.6,159.241c.159-.485.484-1.4.773-2.478l.6-.094a7.561,7.561,0,0,0,3.524-1.588,11.429,11.429,0,0,0,2.955-3.878c.186-.375.36-.755.519-1.141l.663,1.112c1.694,3.187,3.473,7.247,1.341,12.275a53.959,53.959,0,0,0-2.531,8.411c-.676,2.81,1.265,5.1,3.778,6.521.738,1.888-8.169,4.548-14.991.169C357.235,178.55,355.582,177.571,353.348,176Z"/><path class="a" d="M363.014,138.281a4.5,4.5,0,0,1,3.6-1.052,4.246,4.246,0,0,1,3.051,2.029,5.988,5.988,0,0,1,.628,2.414,17.986,17.986,0,0,1-1.833,9.531,11.429,11.429,0,0,1-2.955,3.878,7.561,7.561,0,0,1-3.524,1.588l-.6.094c-.289,1.082-.614,1.994-.773,2.478-1.063,2.885-7.188,13.126-14.784,16.289l0,.163c.036,2.2-.081,6.686,1.083,8.548,2.045,3.272,11.215,7.027,11.511,7.149,0,0-2.622,19.949-26.622,19.949s-26.2-19.5-26.2-19.5c.563-.192,10.841-3.809,12.686-9.371a23.755,23.755,0,0,0,1.129-6.776l.007-.421a26.377,26.377,0,0,1-8.7-7.051,30.569,30.569,0,0,1-5.829-11.375l-1.148-.177a7.557,7.557,0,0,1-3.523-1.588,11.429,11.429,0,0,1-2.955-3.878,17.977,17.977,0,0,1-1.834-9.531,6,6,0,0,1,.628-2.414,4.246,4.246,0,0,1,3.052-2.029,4.5,4.5,0,0,1,3.6,1.052s-1.348-24.942,30.652-24.942S363.014,138.281,363.014,138.281Z"/><path class="b" d="M363.014,138.281a4.5,4.5,0,0,1,3.6-1.052,3.5,3.5,0,0,1,.558.127c2.534-5.868,1.256-15.791.245-20.739-3.125-15.327-18.562-27.493-34.751-26.6-16.188-.889-31.625,11.277-34.751,26.6a44.4,44.4,0,0,0,.008,14.637l1.525,5.938a4.569,4.569,0,0,1,2.628.63,94.593,94.593,0,0,0,14.1-11.271l7.51.133a37.913,37.913,0,0,0,20.843-11.919c.283.9.471,1.5.471,1.5,1.956,6.168,11.318,13.431,15.093,15.449Z"/><path class="c" d="M379.7,270.817a40.453,40.453,0,0,0,5.574,5.669c3.879,3.376,11.982,8.013,16.286,2.547,3.7-4.7,3.981-6.737,2.927-12.24a210.021,210.021,0,0,0-6.1-23.048c-1.658-4.884-2.379-7.578-4.275-12.339-1.863-5.322-6.333-20.957-12.628-27.921-6.592-7.292-20.627-13.228-21.382-11.846-4.33,3.925-17.748,7.945-27.562,7.92-10.374-.025-21.477-3.859-27.377-7.719l-.1-.063c-10.194-.095-26,2.27-31.986,1.961-6.419-.332-7.793-.056-14.179-.233l-.722-.02c1.945-10.46,6.437-28.709,8.135-35.4-5.854.238-18.32-1.135-23.022-.41-1.064,3.547-9.607,24.779-12.195,33.083-1.87,6-5.9,18.9.488,23.973,3.329,2.642,11.09,3.981,14.9,4.257,4.848.35,50,5.164,44.936,5.938,1.847,12.848,5.184,32.411,7.265,42.717.44,3.5-1,13.938-2.82,24.489h70.679Z"/><path class="d" d="M363.3,327.634c-.112-.481-.226-.956-.344-1.422a77.631,77.631,0,0,1-1.733-12.913,176.187,176.187,0,0,1-.108-24.155c.412-6.677,1.654-22.033,7.184-22.883,1.821-.78,4.826.064,6.883-.04l1.766-.09.081.19a20.7,20.7,0,0,0,2.669,4.5,40.453,40.453,0,0,0,5.574,5.669c.54.47,1.161.963,1.842,1.451,1.78,1.144,8.487,30.279,9.154,34.239a62.424,62.424,0,0,1,1.252,14.272c-.149,2.816.28,4.88-2.388,6.3-2.356,1.254-19.185,5.676-24.56,4.974C365.376,337.044,364.355,332.14,363.3,327.634Z"/><path class="e" d="M299.847,130.722a37.1,37.1,0,0,1-.307-11.588,27.465,27.465,0,0,1,3.83-11.065,33.505,33.505,0,0,1,18.682-14.718,40.5,40.5,0,0,1,12.238-1.383A30.691,30.691,0,0,1,346.3,94.447a33.527,33.527,0,0,1,17.2,16.561,37.231,37.231,0,0,1,2.87,11.975c.451,4.537.659,9.487-1.108,13.785a2.013,2.013,0,0,0,1.4,2.461,2.051,2.051,0,0,0,2.46-1.4c1.711-4.161,1.71-9.006,1.376-13.423a47.554,47.554,0,0,0-2.283-12.358,36.88,36.88,0,0,0-17.493-19.9,36.307,36.307,0,0,0-13.023-4,60.809,60.809,0,0,0-6.844-.183,34.328,34.328,0,0,0-6.934.763,37.59,37.59,0,0,0-22.37,14.826,32.07,32.07,0,0,0-5.728,13.414,40.518,40.518,0,0,0,.168,14.815c.559,2.511,4.417,1.448,3.857-1.064Z"/><path class="e" d="M364.428,139.7a2.415,2.415,0,0,1,3.433.453,5.066,5.066,0,0,1,.487,2.571,15.112,15.112,0,0,1-.214,3.122c-.677,3.712-2.564,8.16-6.688,8.9a2.017,2.017,0,0,0-1.4,2.46,2.044,2.044,0,0,0,2.46,1.4c6.3-1.13,9.309-8.246,9.784-13.959.243-2.936,0-6.286-2.535-8.188a6.53,6.53,0,0,0-8.159.416,2.015,2.015,0,0,0,0,2.828,2.043,2.043,0,0,0,2.829,0Z"/><path class="e" d="M359.931,153.323a16.976,16.976,0,0,1-.987,4.575c-.089.27-.192.538-.272.811-.037.127-.2.476.028-.045-.14.322-.29.637-.447.95a38.446,38.446,0,0,1-3.323,5.34c-2.893,3.968-6.821,8.172-11.776,9.335-2.5.587-1.444,4.445,1.064,3.857,5.923-1.39,10.519-6.233,14-10.951,3.009-4.075,5.5-8.693,5.709-13.872.1-2.574-3.9-2.569-4,0Z"/><path class="e" d="M304.109,136.867a6.53,6.53,0,0,0-8.158-.416c-2.542,1.9-2.778,5.257-2.535,8.188.474,5.713,3.481,12.829,9.784,13.959a2.056,2.056,0,0,0,2.46-1.4,2.017,2.017,0,0,0-1.4-2.46c-4.125-.74-6.011-5.188-6.689-8.9a15.154,15.154,0,0,1-.217-2.948,5.872,5.872,0,0,1,.417-2.626,2.4,2.4,0,0,1,3.507-.572,2.053,2.053,0,0,0,2.828,0,2.015,2.015,0,0,0,0-2.828Z"/><path class="e" d="M301.984,153.064A34.947,34.947,0,0,0,309.43,169.8c4.191,4.962,9.739,8.547,16.273,9.252a2.012,2.012,0,0,0,2-2,2.045,2.045,0,0,0-2-2c-5.587-.6-10.254-4.185-13.72-8.41-3.421-4.171-5.225-9.387-6.142-14.638a2.016,2.016,0,0,0-2.46-1.4,2.044,2.044,0,0,0-1.4,2.46Z"/><path class="e" d="M279.472,119.894c7.047-11.736,4.72-27.688-6.305-36.079a29.039,29.039,0,0,0-8.336-4.328c-2.444-.826-3.493,3.036-1.063,3.857A22.961,22.961,0,0,1,277.39,95.129a24.617,24.617,0,0,1-1.372,22.747c-1.328,2.212,2.129,4.225,3.454,2.018Z"/><path class="e" d="M247.06,78.9a25.375,25.375,0,0,0-17.886,15.475c-3.441,8.838-2.7,19.7,3.134,27.346a29.1,29.1,0,0,0,12.2,9.155,2.013,2.013,0,0,0,2.461-1.4,2.051,2.051,0,0,0-1.4-2.46A22.935,22.935,0,0,1,231.4,109.583c-1.156-7.525.95-16.119,6.548-21.465a22.434,22.434,0,0,1,10.175-5.359c2.5-.624,1.439-4.483-1.063-3.858Z"/><path class="e" d="M245.137,115.578a14.022,14.022,0,0,1-3.951-13.228,12.855,12.855,0,0,1,6.852-9.385c2.294-1.17.272-4.622-2.019-3.454a16.666,16.666,0,0,0-8.757,12.139c-1.071,6.2.383,12.361,5.047,16.757,1.872,1.765,4.706-1.058,2.828-2.829Z"/><path class="e" d="M262.931,93.389a13.029,13.029,0,0,1,5.994,6.867,14.93,14.93,0,0,1-.758,11.822c-1.184,2.282,2.267,4.307,3.454,2.019a18.945,18.945,0,0,0,1.162-14.9,17.248,17.248,0,0,0-7.833-9.258c-2.242-1.272-4.26,2.182-2.019,3.454Z"/><path class="e" d="M245.7,61.405c0,10.414-.064,20.828-.065,31.243a2.03,2.03,0,0,0,2,2c5.414,0,10.827-.15,16.24-.153a2.029,2.029,0,0,0,2-2c0-8.732-.157-17.465-.23-26.2-.013-1.558-.032-3.116-.028-4.673.006-2.574-3.994-2.578-4,0-.022,8.585.152,17.174.225,25.759.015,1.7.033,3.406.033,5.11l2-2c-5.413,0-10.826.149-16.24.153l2,2c0-10.415.064-20.829.065-31.243,0-2.574-4-2.578-4,0Z"/><path class="a" d="M244.029,157.125a20.48,20.48,0,0,1,1.225-4.165c1.254-2.975,1.058-4.692.282-7.753-.7-2.755-3.154-10.822-1.53-13.6l2.035-4.344a15.214,15.214,0,0,1-1.65-4.137c-.4-1.658-1.142-4.772-.357-6.364a7.483,7.483,0,0,1,3.07-3.329,24.109,24.109,0,0,1,10.259-2.576c1.674-.637,3.169-1.429,5.012-1.112.83.143,3.221,1.677,4,1.651a15.1,15.1,0,0,1,2.068,1.9c2.827-.413,5.981,2.137,8.243,4.483a12.916,12.916,0,0,1,3.031,4.12c.726,2.27.17,3.523-.082,5.538a19.236,19.236,0,0,1-2.592,7.62,14.108,14.108,0,0,1-4.789,5.826,21.83,21.83,0,0,0-3.625,2.809,8.543,8.543,0,0,0-1.57,4.145c-.679,3.491-.584,7.014-1.315,10.5Z"/><path class="e" d="M245.958,157.657c.4-2.033,1.271-3.842,1.81-5.82a11.6,11.6,0,0,0,.156-5.077c-.438-2.568-1.3-5.059-1.842-7.607a25.752,25.752,0,0,1-.6-3.991,10.3,10.3,0,0,1,.012-1.648,4.06,4.06,0,0,1,.238-.9c.6-1.315,1.264-2.6,1.895-3.9,1.12-2.306-2.328-4.336-3.454-2.019-.632,1.3-1.275,2.594-1.9,3.9-1.2,2.533-.832,5.35-.364,8.03.433,2.482,1.141,4.893,1.748,7.334a9.288,9.288,0,0,1,.248,4.81c-.539,1.979-1.414,3.786-1.81,5.82-.49,2.515,3.364,3.592,3.857,1.064Z"/><path class="e" d="M266.375,109.4c.59.05-.14-.1-.111-.085-.327-.163-.659-.313-.986-.475a14.332,14.332,0,0,0-2.061-.932c-1.969-.6-3.838.094-5.678.746-1.327.47-3.03.364-4.474.655a28.176,28.176,0,0,0-5.516,1.727c-3.468,1.481-6.132,4.453-5.828,8.4.235,3.058,1.04,6.648,2.83,9.191A5.083,5.083,0,0,0,248.917,131a4.32,4.32,0,0,0,4.291-2.923c.806-2.451-3.055-3.5-3.857-1.063.026-.081.1-.113.159-.16-.2.153-.087.077-.334.13a2,2,0,0,1-.9-.085c.292.107-.119-.113.05.03a2.875,2.875,0,0,1-.4-.439,7.462,7.462,0,0,1-.887-1.651,18.851,18.851,0,0,1-.894-3,10.526,10.526,0,0,1-.427-3.794c.378-2.432,3.554-3.526,5.6-4.164a24.69,24.69,0,0,1,4.051-.938,11.507,11.507,0,0,1,1.461-.1,5.5,5.5,0,0,0,2.126-.477,8.435,8.435,0,0,1,2.282-.685,1.838,1.838,0,0,1,1.286.244,11.489,11.489,0,0,0,3.856,1.47,2.015,2.015,0,0,0,2-2,2.041,2.041,0,0,0-2-2Z"/><path class="e" d="M248.358,120.509a45.438,45.438,0,0,0,1.147,5.222,10.973,10.973,0,0,0,2.24,4.822,5.2,5.2,0,0,0,6.3.545,5.272,5.272,0,0,0,2.166-2.7,6.848,6.848,0,0,0,.222-2.936,51.884,51.884,0,0,0-1.379-7.09,2.016,2.016,0,0,0-2.46-1.4,2.042,2.042,0,0,0-1.4,2.46c.4,1.71.843,3.412,1.125,5.147.024.152.089.633.039.226.027.218.052.436.072.654a11.348,11.348,0,0,1,.052,1.223c0,.094-.01.189-.01.283,0,.318-.055-.134.023-.137,0,0-.115.39-.122.442-.032.241.2-.31.045-.119a1.8,1.8,0,0,0-.13.227.843.843,0,0,1-.11.163q.252-.318.105-.15c-.044.05-.09.1-.137.144a1.466,1.466,0,0,0-.149.134c-.147.192.309-.161.083-.069-.079.032-.322.257-.419.235.063.014.366-.111.084-.048-.086.02-.192.048-.278.077-.16.052-.212.15.093,0a1.051,1.051,0,0,1-.384.019c-.106,0-.211-.013-.317-.014-.226,0,.1.01.124.017a2.084,2.084,0,0,0-.336-.075c-.28-.019.157.025.193.1a1.088,1.088,0,0,0-.179-.1c-.211-.165.056.167.151.13-.046.018-.281-.276-.312-.307-.225-.227.095.092.1.134a1.115,1.115,0,0,0-.135-.2c-.078-.122-.15-.247-.219-.374-.082-.152-.147-.312-.228-.463-.108-.2.083.185.071.175a1.516,1.516,0,0,1-.146-.374c-.235-.632-.419-1.281-.593-1.932a45.745,45.745,0,0,1-1.131-5.164,2.005,2.005,0,0,0-2.46-1.4,2.063,2.063,0,0,0-1.4,2.46Z"/><path class="e" d="M263.24,116.418a44.03,44.03,0,0,0-.227,7.246c-.009,1.247-.043,2.491-.161,3.733-.041.441.074-.389.009-.056-.018.1-.03.193-.049.288-.039.207-.107.4-.152.609-.076.343.187-.4.087-.2a.941.941,0,0,1-.086.147s.332-.531.188-.259c-.018.035-.077.072-.106.1-.136.12.2-.157.2-.155a2.006,2.006,0,0,0-.241.149c-.051.029-.107.053-.157.084-.269.169.116-.083.133-.047,0,.007-.461.159-.5.171-.073.021-.478.172-.543.121-.018-.014.425-.023.181-.026-.117,0-.236.019-.354.021-.071,0-.142,0-.213,0-.349.008-.04.081.042.027-.083.055-.375-.106-.471-.112-.244-.015.3.19.1.051a1.164,1.164,0,0,0-.238-.133c-.174-.056.1.074.128.111-.065-.074-.374-.416-.068-.012a2.053,2.053,0,0,0-2.736-.718,2.021,2.021,0,0,0-.718,2.737,4.74,4.74,0,0,0,2.67,1.878,6.612,6.612,0,0,0,2.949,0,4.581,4.581,0,0,0,3.606-2.831,13.457,13.457,0,0,0,.47-3.747c.057-1.521.039-3.042.037-4.563,0-.767,0-1.534.02-2.3.008-.321.021-.642.044-.962.008-.121.021-.241.03-.362.04-.485-.084.509-.009.078a2.046,2.046,0,0,0-1.4-2.46,2.025,2.025,0,0,0-2.461,1.4Z"/><path class="e" d="M257.816,142.086c2.621-1.361,2.8-4.094,4.085-6.413a5.521,5.521,0,0,1,1.2-1.473,13.771,13.771,0,0,1,3.334-2.444,9.717,9.717,0,0,0,3.714-2.67,6.584,6.584,0,0,0,1.521-4.42,6.829,6.829,0,0,0-1.854-4.187c-.954-.988-1.6-.884-1.92-2.192a4.294,4.294,0,0,1,.09-2.422c.094-.235.428-.554.285-.483a2.767,2.767,0,0,1,2.043.112c2.543.905,4.905,3.318,6.539,5.415a5.233,5.233,0,0,1,1.171,4.023,33.259,33.259,0,0,1-.837,4.714,20.405,20.405,0,0,1-3.955,7.71c-2.428,2.778-6.194,3.817-7.513,7.55-1.452,4.107-1.062,8.668-1.905,12.9-.5,2.514,3.354,3.59,3.857,1.063.809-4.063.576-8.326,1.722-12.321.5-1.742,1.855-2.542,3.272-3.522a17.714,17.714,0,0,0,3.6-3.08,25.542,25.542,0,0,0,4.681-8.888,40.116,40.116,0,0,0,.91-4.918,9.35,9.35,0,0,0-.463-5.374c-1.3-2.963-4.19-5.582-6.775-7.435-2.5-1.794-6.6-3.274-9.163-.756-1.932,1.9-2.061,5.258-1.13,7.655a6.245,6.245,0,0,0,.9,1.635c.475.609,1.1.824,1.64,1.326a2.4,2.4,0,0,1,.247,3.3c-.953,1.416-2.928,1.838-4.3,2.79a16.5,16.5,0,0,0-3.265,2.886,9.124,9.124,0,0,0-1.6,2.628c-.506,1.264-.839,3.159-2.151,3.84-2.285,1.187-.264,4.64,2.019,3.454Z"/><path class="e" d="M317.4,175.693a24.486,24.486,0,0,1-1.11,6.4c-.1.355.125-.207-.051.123-.078.146-.148.3-.23.439s-.17.29-.262.431c-.047.071-.1.141-.143.211-.021.032-.232.323-.1.145.113-.151-.176.211-.229.273q-.174.2-.357.4c-.27.286-.553.56-.846.823q-.415.372-.854.716c.246-.193-.116.084-.194.141-.177.129-.356.255-.537.38-.664.455-1.35.877-2.051,1.273a39.185,39.185,0,0,1-3.63,1.793c-.426.186.243-.1-.053.023l-.373.152q-.315.127-.63.247c-.232.089-.464.175-.7.256a2.047,2.047,0,0,0-1.4,2.46,2.02,2.02,0,0,0,2.46,1.4,38.26,38.26,0,0,0,6.1-2.741c2.908-1.613,6.117-3.82,7.542-6.945a21.735,21.735,0,0,0,1.638-8.39c.059-2.575-3.941-2.574-4,0Z"/><path class="e" d="M343.819,175.693c.053,3.621-.321,8.03,2.378,10.849,2.325,2.43,5.632,4.029,8.638,5.438q1.506.707,3.046,1.339a2.012,2.012,0,0,0,2.46-1.4,2.05,2.05,0,0,0-1.4-2.461c-.061-.024-.121-.051-.181-.075-.282-.109.41.177.256.109-.085-.038-.17-.073-.255-.109q-.725-.314-1.443-.642c-1.352-.621-2.686-1.284-3.985-2.008-.711-.4-1.412-.812-2.093-1.258q-.491-.32-.964-.664c-.107-.078-.412-.32-.143-.1-.17-.137-.34-.275-.5-.419-.228-.2-.45-.409-.658-.63-.054-.057-.407-.456-.205-.217.184.22-.095-.138-.141-.213a4.15,4.15,0,0,1-.216-.406c.155.323.008-.01-.038-.157a12.04,12.04,0,0,1-.3-1.312s-.054-.334-.026-.144c.026.173-.043-.377-.042-.365-.027-.251-.048-.5-.067-.755-.04-.54-.065-1.08-.081-1.621-.027-.926-.024-1.852-.038-2.779-.037-2.571-4.037-2.579-4,0Z"/><path class="f" d="M368.313,226.584c1.236,7.614-.6,30.138-1.97,41.058-.811,6.452,4.768,36.467,7.322,47.327"/><path class="e" d="M296.175,291.805a191.958,191.958,0,0,0-6.941,43.137c-.119,2.574,3.882,2.568,4,0a187.122,187.122,0,0,1,6.8-42.073c.7-2.482-3.157-3.541-3.857-1.064Z"/><path class="e" d="M298.1,294.131H359.05c2.574,0,2.579-4,0-4H298.1c-2.574,0-2.578,4,0,4Z"/><path class="e" d="M304.147,193.567c6.913,4.466,15.413,6.855,23.534,7.72a56.261,56.261,0,0,0,23.974-3.15,30.291,30.291,0,0,0,9.625-4.883c1.984-1.643-.859-4.459-2.828-2.828a25.239,25.239,0,0,1-7.183,3.615,63.851,63.851,0,0,1-10.7,2.793,49.879,49.879,0,0,1-23.474-1.811,44.266,44.266,0,0,1-10.927-4.91c-2.168-1.4-4.176,2.06-2.019,3.454Z"/><path class="e" d="M296.68,267.642c.363,3.189-.191,6.569-.579,9.73-.617,5.029-1.442,10.033-2.308,15.025a2.058,2.058,0,0,0,1.4,2.46,2.016,2.016,0,0,0,2.46-1.4c.9-5.211,1.744-10.435,2.4-15.683.411-3.289,1.007-6.814.629-10.135a2.061,2.061,0,0,0-2-2,2.012,2.012,0,0,0-2,2Z"/><path class="e" d="M308.705,189.934c-6.478-.59-13.108.175-19.562.753-5.967.534-11.9,1.2-17.9.967-4.115-.164-8.234-.04-12.352-.149-2.574-.068-2.573,3.932,0,4,3.533.094,7.066,0,10.6.092,2.864.071,5.667.207,8.529.028,6.738-.42,13.444-1.245,20.183-1.646a70.235,70.235,0,0,1,10.5-.045,2.014,2.014,0,0,0,2-2,2.043,2.043,0,0,0-2-2Z"/><path class="e" d="M288.777,220.29c1.689,12.9,3.871,25.749,6.2,38.548.567,3.116,1.15,6.23,1.775,9.335.508,2.522,4.365,1.455,3.858-1.063-2.507-12.444-4.582-24.99-6.5-37.537-.471-3.091-.93-6.183-1.336-9.283a2.066,2.066,0,0,0-2-2,2.011,2.011,0,0,0-2,2Z"/><path class="e" d="M291.309,222.441c-2.613-.607-5.305-.926-7.959-1.288-4.223-.577-8.454-1.1-12.688-1.593-7.378-.866-14.765-1.695-22.161-2.4a59.808,59.808,0,0,1-9.8-1.521c-2.086-.554-4.492-1.213-6.134-2.691a8.081,8.081,0,0,1-2.34-5.063c-.6-4.594.649-9.387,1.928-13.763,1.073-3.674,2.341-7.28,3.66-10.872,1.861-5.067,3.8-10.1,5.729-15.144,1.253-3.276,2.647-6.547,3.669-9.906l-1.4,1.4c-.317.046.576-.052.721-.062.367-.027.736-.044,1.1-.056.851-.029,1.7-.028,2.554-.016,2.116.029,4.231.13,6.344.237,3.912.2,7.85.522,11.768.379l-1.928-2.531c-2.68,10.56-5.262,21.164-7.445,31.84-.519,2.542-1.023,5.091-1.387,7.66a2.067,2.067,0,0,0,1.4,2.46,2.014,2.014,0,0,0,2.46-1.4c.72-5.076,1.87-10.1,2.988-15.1,1.3-5.8,2.674-11.582,4.089-17.354q.864-3.526,1.755-7.048a2.02,2.02,0,0,0-1.929-2.532c-4.035.147-8.09-.2-12.118-.4a59.364,59.364,0,0,0-11.436.057,1.971,1.971,0,0,0-1.4,1.4c-.911,2.994-2.143,5.911-3.259,8.832-1.738,4.547-3.487,9.089-5.188,13.65-1.416,3.8-2.822,7.6-4.018,11.472-1.433,4.641-2.742,9.468-2.784,14.359-.042,4.863,1.552,9.674,6.1,12.035,4.363,2.268,9.552,3.113,14.4,3.506,6.595.535,13.177,1.32,19.75,2.067,4.888.556,9.773,1.132,14.65,1.775,2.909.384,6.216.759,9.236,1.46,2.5.582,3.574-3.274,1.064-3.857Z"/><path class="c" d="M361.078,191.464c3.449.431,14.7,5.72,20.4,12.021,6.3,6.964,10.765,22.6,12.628,27.921,1.9,4.761,2.617,7.455,4.275,12.339a210.021,210.021,0,0,1,6.1,23.048c1.054,5.5.77,7.544-2.927,12.24-4.3,5.466-12.407.829-16.286-2.547-5.319-4.631-8.591-8.5-9.789-15.546l-4.3-23.592Z"/><path class="c" d="M373.9,224.621a99.06,99.06,0,0,0-2-18.892c-1.54-7.254-3.592-11.707-5.587-13.569-1.506-.72-4.188-1.327-5.189-.532,2.3,2.893,3.471,11.562,3.991,15.964.51,4.309,1.057,22.351,1.051,22.04l.313,22.837a130.72,130.72,0,0,1-.263,14.317l7.809.044a65.322,65.322,0,0,0,.262-12.96Z"/><path class="e" d="M360.546,193.392c3.1.432,6.177,2.13,8.88,3.608a39.468,39.468,0,0,1,10.73,8c2.65,2.98,4.449,6.76,6.042,10.381,1.662,3.778,3.027,7.684,4.33,11.6,2.7,8.118,5.748,16.115,8.1,24.351,1.331,4.664,2.548,9.37,3.549,14.116a25.4,25.4,0,0,1,.834,6.112,9.1,9.1,0,0,1-1.95,4.814c-1.3,1.874-2.621,3.241-5.029,3.172a13.128,13.128,0,0,1-6.1-2.155,31.416,31.416,0,0,1-5.662-4.525,24.066,24.066,0,0,1-5.509-7.556,2.014,2.014,0,0,0-2.736-.717,2.05,2.05,0,0,0-.718,2.736c2.244,5.054,6.517,9.327,11,12.476,3.5,2.456,8.417,4.772,12.755,3.332,2.585-.857,4.2-2.86,5.666-5.05a12.593,12.593,0,0,0,2.261-6.1,25.6,25.6,0,0,0-.817-6.955c-.5-2.446-1.077-4.877-1.684-7.3-1.245-4.96-2.614-9.9-4.249-14.744-1.562-4.629-3.254-9.221-4.788-13.855-2.7-8.17-5.312-16.808-10.183-24-3-4.43-7.27-7.723-11.824-10.448a56.611,56.611,0,0,0-6.739-3.456,20.432,20.432,0,0,0-5.091-1.7,2.069,2.069,0,0,0-2.46,1.4,2.014,2.014,0,0,0,1.4,2.46Z"/><path class="e" d="M375.18,264.221c-3.036.082-6.09-.871-8.937.668-2,1.079-3.124,3.253-3.945,5.268-2.042,5.011-2.553,10.709-2.98,16.056a176.546,176.546,0,0,0-.306,23.891c.414,7.426,1.083,15.029,3.426,22.136.884,2.684,2.348,5.326,4.994,6.607a12.68,12.68,0,0,0,6.9.814,95.259,95.259,0,0,0,15.872-3.19,42.465,42.465,0,0,0,5.26-1.7c2.756-1.162,3.871-3.479,3.988-6.355a76.06,76.06,0,0,0-1.663-18.808,287.58,287.58,0,0,0-7.066-28.227c-.252-.791-.515-1.577-.813-2.352a2.06,2.06,0,0,0-2.461-1.4,2.016,2.016,0,0,0-1.4,2.461,106.771,106.771,0,0,1,3.455,11.812q1.857,7.217,3.489,14.49a113.871,113.871,0,0,1,2.253,12.429,48.627,48.627,0,0,1,.321,5.709,33.263,33.263,0,0,1-.174,4.767,2.241,2.241,0,0,1-1.43,1.792c-.246.138-.121.05.087-.032-.122.048-.244.1-.368.142-.331.12-.663.238-1,.349a103.275,103.275,0,0,1-13.546,3.381,44.59,44.59,0,0,1-6.539.848c-1.884.069-3.7-.178-4.949-1.807-1.465-1.9-1.883-4.543-2.418-6.82a75.322,75.322,0,0,1-1.773-10.785,181.957,181.957,0,0,1-.479-25,94.562,94.562,0,0,1,1.662-15.024,21.993,21.993,0,0,1,2.088-6.278c.11-.193.227-.381.347-.568a2.182,2.182,0,0,1,.181-.269c.123-.153.258-.3.395-.435.066-.068.135-.132.2-.195.428-.388-.164.111.1-.075.066-.048.479-.274.293-.19s.242-.07.323-.093a6.175,6.175,0,0,1,1.731-.313c1.63-.014,3.24.338,4.871.294,2.569-.069,2.58-4.07,0-4Z"/><path class="e" d="M372.821,253.072a58.47,58.47,0,0,1,.195,6.265c-.013,1.181-.048,2.362-.121,3.541-.034.546-.076,1.091-.131,1.635-.023.221-.054.441-.076.662-.027.266.068-.426,0-.054-.022.126-.041.253-.063.379a2.047,2.047,0,0,0,1.4,2.46,2.023,2.023,0,0,0,2.46-1.4,44.61,44.61,0,0,0,.527-7.042,59.074,59.074,0,0,0-.193-6.45,2.045,2.045,0,0,0-2-2,2.022,2.022,0,0,0-2,2Z"/><path class="e" d="M365.013,251.671c.184,2.369.11,4.772.065,7.145s-.071,4.8-.327,7.172a2.012,2.012,0,0,0,2,2,2.047,2.047,0,0,0,2-2c.256-2.375.282-4.786.327-7.172s.119-4.776-.065-7.145a2.051,2.051,0,0,0-2-2,2.016,2.016,0,0,0-2,2Z"/><path class="e" d="M375.971,230.075a152.783,152.783,0,0,0-.7-15.646,91.835,91.835,0,0,0-1.964-11.5,33.943,33.943,0,0,0-3.771-9.894,6.7,6.7,0,0,0-3.427-3.111c-1.8-.661-4.279-1.144-6-.025a2.016,2.016,0,0,0-.718,2.736c1.863,2.455,2.335,6.058,2.858,9.006a78.482,78.482,0,0,1,1.057,8.226c.426,6.073.6,12.167.8,18.251.085,2.567,4.086,2.579,4,0-.323-9.71-.377-19.533-2.3-29.093-.562-2.8-1.2-6.084-2.969-8.409l-.717,2.737a1.864,1.864,0,0,1,1.213-.041,8.466,8.466,0,0,1,1.213.3c.164.051.325.11.487.167.462.161-.174-.2.047-.018a8.209,8.209,0,0,1,1.635,2.419,37.841,37.841,0,0,1,3.09,9.377,88.439,88.439,0,0,1,2.077,19.117c0,1.8.049,3.6.073,5.4.034,2.572,4.034,2.579,4,0Z"/><path class="a" d="M365.874,228.59a5.982,5.982,0,0,0-5.192,1.252c-2.711,2.488-2.233,6.084,1.494,6.659-3.395-.99-4.95,3.3-2.752,5.942-2.58.912-2.481,3.818-1.633,5.657.789,1.709,5.987,2.5,7.216,2.634-2.695.307-4.5,1.443-4.811,3.165-.2,1.119-.127,2.3,1.956,3.426,3.493,1.891,8.147,1.775,12.172,2.219,7.09,1.508,8.947,2.745,15.575.013,5.8-2.391,4.56-9.436,1.54-13.538-3.219-4.373-3.822-4.5-7.591-8.277-4.613-4.62-8.11-7.351-14.751-8.559C368.034,228.99,366.945,228.732,365.874,228.59Z"/><path class="e" d="M365.874,226.59c-3.7-.44-7.616,1.274-8.688,5.121a5.327,5.327,0,0,0,4.458,6.719c2.5.459,3.6-3.226,1.064-3.857a4.8,4.8,0,0,0-5.782,2.652,6.4,6.4,0,0,0,1.084,6.632l.882-3.343a5.269,5.269,0,0,0-3.538,4.148,6.566,6.566,0,0,0,1.213,5.153c1.939,2.161,5.715,2.6,8.44,2.919v-4c-3.208.422-6.568,1.844-6.86,5.5-.3,3.745,3.713,5.5,6.766,6.219,3.63.852,7.393.655,11.019,1.494,2.887.667,5.821,1.475,8.809,1.122,3.076-.363,6.939-1.428,9.07-3.821a9.5,9.5,0,0,0,1.967-8.058c-.923-5.66-5.424-9.882-9.339-13.7-2.7-2.633-5.34-5.365-8.619-7.29a31.221,31.221,0,0,0-11.414-3.54,2.066,2.066,0,0,0-2.461,1.4,2.016,2.016,0,0,0,1.4,2.461,32.138,32.138,0,0,1,8.7,2.213,24.151,24.151,0,0,1,6.2,4.311c1.961,1.8,3.854,3.7,5.745,5.579a28.925,28.925,0,0,1,4.35,5.345,10.058,10.058,0,0,1,1.621,5.881c-.171,2.149-1.5,3.371-3.432,4.114a13.987,13.987,0,0,1-6.815,1.126c-2.763-.335-5.4-1.362-8.176-1.624-3.309-.312-6.978-.2-10.035-1.689-.46-.224-1.2-.525-1.4-1.06.037.1.029-.461.063-.541.416-.992,1.893-1.315,2.845-1.44a2,2,0,0,0,0-4c-.077-.009-.522-.076-.075-.008-.211-.032-.421-.064-.631-.1q-.709-.119-1.412-.274a12.9,12.9,0,0,1-2.857-.9c-.048-.024-.555-.333-.36-.19-.248-.182-.063.014-.112-.1a4.038,4.038,0,0,1-.306-1.13c-.061-.614.05-1.4.7-1.666a2.038,2.038,0,0,0,.882-3.342,2.285,2.285,0,0,1-.3-2.148c.221-.5.481-.606,1.1-.451l1.064-3.857c-1.267-.234-2.084-.739-1.623-1.951.782-2.054,2.9-2.257,4.789-2.032a2.011,2.011,0,0,0,2-2A2.049,2.049,0,0,0,365.874,226.59Z"/><path class="e" d="M369.986,236.1a67.32,67.32,0,0,0-7.81-1.6,2,2,0,0,0-1.414.586,2,2,0,0,0,0,2.828,2.3,2.3,0,0,0,1.414.586l.217.026c.4.046-.388-.057-.145-.021.151.023.3.044.452.068.348.055.694.117,1.04.183.674.128,1.344.274,2.012.428,1.06.245,2.112.522,3.17.772a2,2,0,1,0,1.064-3.857Z"/><path class="e" d="M368.507,242.776a29.66,29.66,0,0,0-3.763-.858c-1.234-.232-2.475-.432-3.706-.682a2,2,0,1,0-1.063,3.857c1.231.25,2.471.45,3.706.682a29.531,29.531,0,0,1,3.763.859,2.016,2.016,0,0,0,2.46-1.4,2.047,2.047,0,0,0-1.4-2.461Z"/><path class="e" d="M368.649,249.5a19.328,19.328,0,0,0-3.481-.542l.532.072a4.486,4.486,0,0,1-.727-.149,2,2,0,0,0-2.46,1.4,2.022,2.022,0,0,0,.2,1.541,2.146,2.146,0,0,0,1.2.919,8.3,8.3,0,0,0,1.55.256c.442.05.885.087,1.326.146l-.531-.071a7.747,7.747,0,0,1,1.33.288,2,2,0,0,0,2.259-2.938,2.179,2.179,0,0,0-1.195-.919Z"/><path class="e" d="M337.807,126.085a9.015,9.015,0,0,0,0,3.255,4.964,4.964,0,0,0,1.341,2.533,4.975,4.975,0,0,0,6.138.462,4.6,4.6,0,0,0,2.065-3.718,2,2,0,0,0-4,0c0,.1-.009.207-.021.31l.072-.532a2.607,2.607,0,0,1-.157.577l.2-.478a2.709,2.709,0,0,1-.335.569l.312-.405a2.991,2.991,0,0,1-.472.469l.405-.313a3.265,3.265,0,0,1-.715.414l.478-.2a3.4,3.4,0,0,1-.734.2l.532-.071a3.333,3.333,0,0,1-.835,0l.532.072a3.176,3.176,0,0,1-.784-.209l.478.2a2.666,2.666,0,0,1-.533-.314l.405.313a2.724,2.724,0,0,1-.426-.426l.313.4a3.118,3.118,0,0,1-.375-.641l.2.478a4.247,4.247,0,0,1-.277-1.038l.072.532a6.544,6.544,0,0,1,.014-1.672l-.072.532c.012-.081.023-.162.036-.243a2.182,2.182,0,0,0-.2-1.541,2,2,0,0,0-2.737-.718,1.936,1.936,0,0,0-.919,1.195Z"/><path class="e" d="M343.066,116.793c1.3,3.973,4.3,7.288,7.3,10.09a43.317,43.317,0,0,0,8.713,6.554c2.266,1.222,4.288-2.231,2.019-3.454a30.794,30.794,0,0,1-3.528-2.289,48.944,48.944,0,0,1-4.217-3.493,37.068,37.068,0,0,1-4.1-4.377c-.084-.107-.085-.109,0,0q-.123-.162-.243-.327c-.138-.19-.273-.381-.4-.575-.256-.375-.5-.758-.73-1.15-.218-.375-.41-.759-.6-1.145-.221-.44.013.09-.115-.252-.079-.213-.157-.426-.228-.642a2.045,2.045,0,0,0-2.46-1.4,2.022,2.022,0,0,0-1.4,2.461Z"/><path class="e" d="M323.645,115.808A115.019,115.019,0,0,1,313.5,126.314,90.119,90.119,0,0,1,302,135.5c-2.144,1.406-.142,4.871,2.019,3.454a105.758,105.758,0,0,0,22.45-20.319,2.054,2.054,0,0,0,0-2.828,2.015,2.015,0,0,0-2.828,0Z"/><path class="e" d="M345.58,110.394a40.093,40.093,0,0,1-9.726,9.2,37.979,37.979,0,0,1-12.7,5.158c-2.514.547-1.451,4.4,1.063,3.857a41.532,41.532,0,0,0,24.2-15.391,2.066,2.066,0,0,0,0-2.828,2.011,2.011,0,0,0-2.828,0Z"/><path class="e" d="M356.226,180.277a17.9,17.9,0,0,0,10.1,2.636c2.322-.092,5.381-.5,7.081-2.291a2.7,2.7,0,0,0,.392-3.453c-.507-.678-1.475-1.025-2.1-1.61a4.466,4.466,0,0,1-1.212-1.662,3.483,3.483,0,0,1,.056-2.173c.273-1.127.554-2.253.87-3.369.591-2.089,1.571-4.066,2.109-6.16,1.094-4.253-.168-8.269-2.152-12.031-1.2-2.278-4.655-.258-3.454,2.019a14.771,14.771,0,0,1,2.034,6.16c.124,2.937-1.383,5.53-2.2,8.277-.737,2.481-1.883,5.419-1.216,8.02a9.461,9.461,0,0,0,4.687,5.468l-.919-1.195c.109.36.123-.933.115-.911.02-.059.076-.135.1-.124.083.039-.685.368-.648.352a9.919,9.919,0,0,1-3.067.656,14.161,14.161,0,0,1-8.554-2.063c-2.193-1.364-4.2,2.095-2.019,3.454Z"/><path class="e" d="M312.938,149.766c-2.742-4.675-5.013-9.767-8.51-13.952a2.016,2.016,0,0,0-2.829,0,2.043,2.043,0,0,0,0,2.828c.1.123.2.249.3.372-.185-.225-.164-.217,0,.009q.275.372.539.751c.411.592.8,1.2,1.188,1.806.82,1.3,1.6,2.626,2.362,3.96,1.183,2.07,2.284,4.189,3.49,6.245,1.3,2.22,4.76.209,3.454-2.019Z"/><path class="e" d="M355.823,151.785c2.443-3.943,5.053-7.79,7.614-11.657q.337-.511.678-1.021c.18-.269.638-.713-.01-.04l-3.414-1.414h0l.273-1.01-.011.019a2,2,0,1,0,3.454,2.019,1.95,1.95,0,0,0,.284-1.029,2.034,2.034,0,0,0-1.23-1.828,2,2,0,0,0-2.184.414,10.36,10.36,0,0,0-1.032,1.474q-.906,1.365-1.806,2.734-2.247,3.413-4.477,6.837c-.535.824-1.075,1.647-1.593,2.482a2,2,0,1,0,3.454,2.019Z"/><path class="a" d="M332.134,148.408c-4.723,0-12.6.731-17.711,1.132-.944.074-3.258.347-3.87,1.049-1.137,1.306-.7,4.094-.852,5.678a41.231,41.231,0,0,0,.221,7.6c.34,3.339.506,6.9,2.752,9.5,4.152,4.815,13.775,7.379,20.1,7.379a37.6,37.6,0,0,0,12.371-2.283c3.447-1.259,6.67-3.372,8.475-6.41,1.7-2.864,1.634-5.736,2-9a34.389,34.389,0,0,0,.131-6.912c-.155-1.58.24-4.16-.911-5.482-.611-.7-2.519-1.029-3.463-1.112C345.384,149.025,337.381,148.408,332.134,148.408Z"/><path class="e" d="M332.134,146.408c-4.743.015-9.487.461-14.21.848a42.7,42.7,0,0,0-6.246.678c-2.413.566-3.567,2.159-3.85,4.568a28.74,28.74,0,0,0-.093,2.935c-.019,1.3-.152,2.586-.124,3.888a71.8,71.8,0,0,0,.641,7.65,14.66,14.66,0,0,0,2.445,7.1,16.289,16.289,0,0,0,4.9,4.164c8.392,4.905,18.872,5.593,28.061,2.827,4.8-1.445,9.782-4.048,12.093-8.747a20.515,20.515,0,0,0,1.686-7.388,50.256,50.256,0,0,0,.331-8.574c-.191-2.4.3-5.439-1.679-7.263-1.769-1.628-4.756-1.55-7-1.737-5.636-.471-11.3-.932-16.957-.946-2.574-.006-2.578,3.994,0,4,4.372.011,8.744.31,13.1.639,2.114.159,4.27.235,6.371.526a5.022,5.022,0,0,1,1.854.517c-.243-.146-.1-.379-.006.095.027.143.09.315.12.443a6.74,6.74,0,0,1,.118,1.39c.105,4.578.287,9.2-.608,13.733-.847,4.289-4.16,7.111-8.107,8.646a32.757,32.757,0,0,1-24.485-.181c-3.333-1.381-6.765-3.437-7.8-7.11a34.482,34.482,0,0,1-.868-6.185,48.212,48.212,0,0,1-.111-6.914c.052-1-.045-2.015.059-3.015.034-.323.143-.618.193-.935.079-.507.2-.113-.08,0a2.591,2.591,0,0,1,.4-.149,48.591,48.591,0,0,1,5.629-.652c4.723-.387,9.467-.833,14.21-.848C334.707,150.4,334.712,146.4,332.134,146.408Z"/><path class="e" d="M317.071,140.564c-.49,1.592-.171,5.254,2.844,5.565,3.986-.023,4.2-4.45,2.857-6.532C321.673,137.893,318.443,137.184,317.071,140.564Z"/><path class="e" d="M348.988,140.565c.489,1.591.17,5.253-2.845,5.564-3.986-.024-4.2-4.451-2.857-6.532C344.385,137.893,347.615,137.184,348.988,140.565Z"/><path class="e" d="M317.739,141.456a24.527,24.527,0,0,0,8.436-.782,2,2,0,1,0-1.064-3.857,16.537,16.537,0,0,1-1.8.418c-.172.03-.345.056-.518.084-.4.065.444-.05,0,0-.338.039-.676.077-1.015.105a27.4,27.4,0,0,1-4.042.032,2.01,2.01,0,0,0-2,2,2.047,2.047,0,0,0,2,2Z"/><path class="e" d="M343.628,141.456a24.527,24.527,0,0,0,8.436-.782A2,2,0,0,0,351,136.817a16.537,16.537,0,0,1-1.8.418c-.172.03-.345.056-.518.084-.4.065.444-.05,0,0-.338.039-.676.077-1.015.105a27.4,27.4,0,0,1-4.042.032,2.01,2.01,0,0,0-2,2,2.047,2.047,0,0,0,2,2Z"/><path class="a" d="M146.1,114.951a4.913,4.913,0,0,1,3.932-1.151,4.643,4.643,0,0,1,3.336,2.218,6.582,6.582,0,0,1,.687,2.639,19.662,19.662,0,0,1-2,10.421,12.5,12.5,0,0,1-3.231,4.241,8.282,8.282,0,0,1-3.852,1.736l-.655.1c-.323,1.189-.677,2.182-.85,2.71-1.041,2.825-6.52,12.1-13.615,16.492.076.68.121,1.075.121,1.075.117,1.033.259,2.04.422,2.971.466,2.661.32,5.039,4.019,6.375.241.087,4.208,1.919,4.85,2.2-1.579,4.776-8.96,14.474-26.222,14.474-16.349,0-24.537-10.3-25.628-15.072.453-.193,3.988-1.516,4.233-1.6,3.7-1.336,3.553-3.714,4.019-6.375.2-1.141.367-2.522.5-3.947l.028-.3a30.486,30.486,0,0,1-7.275-6.471,33.521,33.521,0,0,1-6.377-12.438l-1.251-.192a8.287,8.287,0,0,1-3.852-1.736,12.5,12.5,0,0,1-3.231-4.241,19.651,19.651,0,0,1-2-10.421,6.564,6.564,0,0,1,.686-2.639,4.643,4.643,0,0,1,3.337-2.218,4.912,4.912,0,0,1,3.931,1.151s-6.137-34.723,32.53-34.723C150.9,80.228,146.1,114.951,146.1,114.951Z"/><path class="g" d="M74.929,96.479A35.96,35.96,0,0,1,79.791,80.9C82.638,76,89.31,70.131,95.911,67.354c3.123-1.314,4.876-1.858,6.069-5.242.728.405,2.237.587,2.965.992,1.736-2.529,7.135-4.875,8.563-2.468a14.147,14.147,0,0,0,2.118-3.924,8.188,8.188,0,0,1,3.087,2.954c1.885,3.174,7.9,6.3,11.311,7.105,6.49,1.543,13.822,9.46,17.545,15.457,4.284,6.9,6.273,25.8,3.786,31.982a4.52,4.52,0,0,0-1.324-.41,4.856,4.856,0,0,0-4.207,1.424c-.477-3.409-3.115-10.464-4.582-14.221-1.608-4.12-2.122-5.6-4.2-8.595-3.765-3.164-10.093-4.9-13.067-5.312-1.294,1.084-5.015,3.8-6.25,5.135-1.06-1.081-3.586-3.592-4.57-4.017a25.361,25.361,0,0,0-4.595,3.965c-1.355-1.539-4.865-4.873-6.526-5.6-3.353.873-10.544,3.586-13.444,6.109-3.224,5.206-5.278,11.231-9.154,21.738a4.994,4.994,0,0,0-3.212-.625,4.77,4.77,0,0,0-1,.266l-.534-7.616C74.669,103.035,74.639,99.756,74.929,96.479Z"/><path class="e" d="M147.513,116.365a2.83,2.83,0,0,1,4.047.532,5.753,5.753,0,0,1,.558,2.905,16.884,16.884,0,0,1-.241,3.464c-.752,4.12-2.869,9.04-7.443,9.861a2.017,2.017,0,0,0-1.4,2.46,2.045,2.045,0,0,0,2.46,1.4c6.8-1.22,10.048-8.914,10.56-15.082.26-3.133.035-6.754-2.679-8.791a6.952,6.952,0,0,0-8.694.425,2.016,2.016,0,0,0,0,2.829,2.044,2.044,0,0,0,2.829,0Z"/><path class="e" d="M142.915,131.4a18.709,18.709,0,0,1-1.086,5.051c-.1.3-.2.591-.3.886-.041.119-.2.488.011,0-.148.353-.317.7-.488,1.039a42.106,42.106,0,0,1-3.633,5.838c-3.191,4.378-7.52,9.009-12.987,10.292-2.5.587-1.444,4.445,1.064,3.857,6.427-1.508,11.418-6.768,15.2-11.887,3.27-4.428,5.989-9.444,6.217-15.072.1-2.574-3.9-2.57-4,0Z"/><path class="e" d="M81.565,113.536a6.954,6.954,0,0,0-8.694-.425c-2.716,2.032-2.939,5.662-2.679,8.791.512,6.167,3.755,13.862,10.56,15.082a2.057,2.057,0,0,0,2.46-1.4,2.017,2.017,0,0,0-1.4-2.46c-4.574-.821-6.691-5.741-7.443-9.861a16.69,16.69,0,0,1-.244-3.273,6.541,6.541,0,0,1,.481-2.965,2.815,2.815,0,0,1,4.127-.663,2.057,2.057,0,0,0,2.829,0,2.017,2.017,0,0,0,0-2.829Z"/><path class="e" d="M79.553,131.063a37.965,37.965,0,0,0,8.219,18.362c4.536,5.306,10.506,9.159,17.534,9.912a2.013,2.013,0,0,0,2-2,2.045,2.045,0,0,0-2-2c-6.083-.652-11.168-4.492-14.981-9.066C86.473,141.65,84.431,135.858,83.41,130a2.017,2.017,0,0,0-2.46-1.4,2.044,2.044,0,0,0-1.4,2.46Z"/><path class="a" d="M163.128,308.613c-18.593,1.434-97.546,1.961-100.53-.547-4.809-6.953-2.335-63.476-.539-89.4l-1.1.339c-3.93,1.223-11.886,3.224-19.222,5.844-5.855,2.091-15.63,3.65-21.833,2.009-3.42-.905-6.967-5.61-7.86-11.266-3.271-20.724,1.152-53.109,2.724-62.366,3.4-.016,21.665,1.464,27.459,1.939-1.143,11.8-.337,25.4-.353,34.395,9.583-1.588,17.706-11.21,25.355-15.541,5.419-2.772,8.089-3.632,12.594-5.585l7.582-2.049c1.09,4.77,9.279,15.072,25.628,15.072,18.319,0,25.511-10.923,26.448-15.293,5.035,1.336,23.62,6.706,30.416,11.713,5.379,3.963,11.028,8.5,13.549,14.826l2.786,7.781c4.32,14.619,7.08,31.076.837,44.987-4.939,11.006-14.085,13.924-23.244,12.162l.738,5.576c1.778,15,2.825,38.453-1,45.372Z"/><path class="e" d="M54.551,108.785a28.535,28.535,0,0,0-1.666-23.9A27.291,27.291,0,0,0,37.712,72.868c-2.444-.826-3.493,3.036-1.063,3.857A23.062,23.062,0,0,1,49.431,86.9a24.684,24.684,0,0,1,1.263,20.822,2.017,2.017,0,0,0,1.4,2.461,2.046,2.046,0,0,0,2.46-1.4Z"/><path class="e" d="M19.941,72.282a25.376,25.376,0,0,0-18,15.778c-3.358,8.966-2.455,19.708,3.493,27.356A28.966,28.966,0,0,0,17.487,124.3a2.011,2.011,0,0,0,2.46-1.4,2.051,2.051,0,0,0-1.4-2.461A22.983,22.983,0,0,1,4.305,103.116c-1.24-7.543.905-16.26,6.524-21.617a22.459,22.459,0,0,1,10.176-5.36c2.5-.624,1.438-4.482-1.064-3.857Z"/><path class="e" d="M17.774,108.729c-6.426-6.32-4.994-18.234,3.145-22.384,2.294-1.169.272-4.621-2.019-3.453a16.653,16.653,0,0,0-8.725,11.956c-1.126,6.13.251,12.264,4.77,16.709,1.837,1.807,4.668-1.019,2.829-2.828Z"/><path class="e" d="M35.812,86.769A13.179,13.179,0,0,1,41.4,92.643a14.884,14.884,0,0,1,.728,10.139c-.684,2.485,3.174,3.546,3.857,1.063a19.1,19.1,0,0,0-1.025-13,17,17,0,0,0-7.124-7.533c-2.243-1.27-4.261,2.184-2.019,3.453Z"/><path class="e" d="M18.58,54.785c0,10.415-.064,20.829-.065,31.244a2.03,2.03,0,0,0,2,2c5.414,0,10.827-.15,16.241-.154a2.03,2.03,0,0,0,2-2c0-8.732-.158-17.464-.231-26.2-.013-1.557-.032-3.115-.028-4.672.007-2.575-3.993-2.578-4,0-.022,8.585.152,17.173.225,25.759.015,1.7.033,3.406.034,5.109l2-2c-5.414,0-10.827.149-16.241.154l2,2c0-10.415.064-20.829.065-31.244,0-2.573-4-2.578-4,0Z"/><path class="a" d="M16.924,153.074a22.666,22.666,0,0,1,1.361-4.628c1.392-3.305,1.175-5.213.313-8.614-.776-3.06-3.5-12.024-1.7-15.11l2.261-4.826a16.932,16.932,0,0,1-1.834-4.6c-.447-1.841-1.268-5.3-.4-7.07a8.306,8.306,0,0,1,3.412-3.7c3.659-1.9,8.886-3.024,11.4-2.862,1.86-.708,3.521-1.588,5.569-1.236.922.159,3.579,1.863,4.444,1.835a16.66,16.66,0,0,1,2.3,2.108c3.141-.458,6.646,2.375,9.159,4.982a14.332,14.332,0,0,1,3.367,4.577c.808,2.522.19,3.915-.09,6.153a21.4,21.4,0,0,1-2.88,8.468c-1.572,2.953-2.561,4.469-5.322,6.472a24.237,24.237,0,0,0-4.027,3.122,9.486,9.486,0,0,0-1.745,4.6c-.754,3.88-.648,7.794-1.461,11.67Z"/><path class="e" d="M18.852,153.606c.423-2.184,1.326-4.129,1.947-6.241a12.474,12.474,0,0,0,.253-5.656c-.466-2.83-1.42-5.576-2.026-8.379a30.923,30.923,0,0,1-.686-4.3,12.514,12.514,0,0,1-.008-2.207,1.637,1.637,0,0,1,.068-.416c.018-.081.258-.8.134-.51.647-1.529,1.47-3.007,2.2-4.5,1.12-2.306-2.328-4.336-3.454-2.019-.729,1.5-1.487,2.991-2.2,4.5-1.3,2.762-.758,6.05-.228,8.937.508,2.77,1.322,5.457,1.976,8.191a9.921,9.921,0,0,1,.166,5.106c-.606,2.182-1.564,4.182-2,6.428-.487,2.515,3.367,3.592,3.857,1.063Z"/><path class="e" d="M41.752,100.266c.485.041-.136-.078-.235-.126-.365-.176-.733-.347-1.1-.527A15.871,15.871,0,0,0,38.185,98.6c-2.042-.629-4.3,0-6.191.829a6.6,6.6,0,0,1-2.114.3c-.958.095-1.914.241-2.858.431a31.116,31.116,0,0,0-6.1,1.907c-3.777,1.614-6.669,4.834-6.339,9.135.259,3.358,1.145,7.31,3.115,10.1a5.416,5.416,0,0,0,4.658,2.528,4.576,4.576,0,0,0,4.554-3.085c.806-2.451-3.055-3.5-3.857-1.063.02-.062-.149.077-.349.122a1.988,1.988,0,0,1-1.124-.094c.243.11-.16-.113-.042-.024a2.646,2.646,0,0,1-.48-.533,8.619,8.619,0,0,1-1-1.862,20.94,20.94,0,0,1-1-3.357,11.919,11.919,0,0,1-.482-4.274c.437-2.875,4.023-4.1,6.385-4.841a27.774,27.774,0,0,1,4.5-1.043,13.318,13.318,0,0,1,1.682-.121,5.94,5.94,0,0,0,2.3-.522c1.39-.546,2.859-1.075,4.135-.467a12.532,12.532,0,0,0,4.172,1.6c2.565.218,2.551-3.784,0-4Z"/><path class="e" d="M21.948,112.331a50.646,50.646,0,0,0,1.274,5.8,11.974,11.974,0,0,0,2.432,5.26,5.563,5.563,0,0,0,6.725.571,5.625,5.625,0,0,0,2.3-2.863,7.465,7.465,0,0,0,.238-3.2,57.225,57.225,0,0,0-1.524-7.819,2.016,2.016,0,0,0-2.46-1.4,2.043,2.043,0,0,0-1.4,2.46c.444,1.9.937,3.792,1.25,5.719.017.109.1.681.051.311.031.241.059.483.08.726a12.575,12.575,0,0,1,.058,1.359c0,.1-.011.21-.011.314,0,.305.051-.043.018-.093.059.091-.12.382-.136.491-.033.244.186-.267.028-.079a1.685,1.685,0,0,0-.145.252c-.036.063-.082.12-.122.181.258-.395.018-.048-.071.038a1.8,1.8,0,0,0-.164.15c-.153.192.278-.13.046-.043a4.409,4.409,0,0,0-.466.262c.4-.217-.12,0-.268.054-.1.033-.371.036.045.009-.143.009-.284.02-.427.02s-.618-.088-.274,0a2.976,2.976,0,0,0-.373-.084c-.341-.031.181.012.162.086,0,0-.213-.121-.2-.108-.134-.141-.22.049.123.11-.113-.02-.272-.265-.347-.341-.264-.27.095.1.075.1a2.225,2.225,0,0,1-.15-.22c-.087-.135-.167-.274-.244-.415-.09-.168-.162-.347-.253-.514-.107-.194.051.129.056.141-.055-.138-.11-.276-.162-.415-.261-.7-.465-1.424-.658-2.148a50.4,50.4,0,0,1-1.257-5.737,2.005,2.005,0,0,0-2.46-1.4,2.061,2.061,0,0,0-1.4,2.46Z"/><path class="e" d="M38.484,107.9a48.463,48.463,0,0,0-.245,7.993c-.01,1.386-.048,2.767-.178,4.147-.044.46.068-.344,0,0-.021.106-.035.214-.055.321-.044.229-.118.449-.17.676-.08.355.187-.369.075-.166a1.343,1.343,0,0,1-.095.164c.182-.243.335-.374.055-.135-.151.13.176-.148.177-.137,0,.038-.238.149-.267.165-.182.1-.442.192-.08.065-.187.065-.37.136-.562.189s-.4.087-.6.135c.424-.1-.053,0-.252,0-.149,0-.739-.079-.248.019a3.841,3.841,0,0,0-.523-.123c-.247-.01.26.173.055.033a1.275,1.275,0,0,0-.265-.147c-.174-.053.053.043.1.088-.055-.056-.388-.424-.11-.058a2.066,2.066,0,0,0-2.737-.718,2.013,2.013,0,0,0-.717,2.737,5.659,5.659,0,0,0,5.992,1.98,4.881,4.881,0,0,0,3.851-2.99,14.727,14.727,0,0,0,.515-4.105c.063-1.689.044-3.38.041-5.07,0-.851,0-1.7.022-2.555.009-.357.023-.713.048-1.069.01-.134.024-.268.035-.4.043-.511-.082.481,0,.027a2.059,2.059,0,0,0-1.4-2.46,2.016,2.016,0,0,0-2.46,1.4Z"/><path class="e" d="M32.131,136.173c2.876-1.477,3.06-4.539,4.471-7.068a7.433,7.433,0,0,1,1.571-1.87,15.555,15.555,0,0,1,3.663-2.607,19.919,19.919,0,0,0,2.21-1.122,8.24,8.24,0,0,0,2.05-2.154,6.817,6.817,0,0,0,1.262-4.8,7.173,7.173,0,0,0-2.31-4.391c-.421-.366-1.126-.706-1.334-.959a3.284,3.284,0,0,1-.533-1.44,4.543,4.543,0,0,1,.29-2.872c.168-.3.231-.38.5-.46a3.432,3.432,0,0,1,2.045.119,12.215,12.215,0,0,1,4.33,2.807,25.6,25.6,0,0,1,3.336,3.491,5.964,5.964,0,0,1,1.213,4.62,39.467,39.467,0,0,1-.994,5.43,24.181,24.181,0,0,1-2.02,4.647,18.7,18.7,0,0,1-2.4,3.775c-2.64,2.95-6.71,4.144-8.189,8.093-1.713,4.573-1.224,9.742-2.171,14.479-.5,2.514,3.352,3.59,3.857,1.064.906-4.536.629-9.3,1.932-13.758.537-1.838,1.938-2.758,3.448-3.794a20.987,20.987,0,0,0,4.053-3.372,27.989,27.989,0,0,0,5.185-9.549,39.736,39.736,0,0,0,1.093-5.595,10.645,10.645,0,0,0-.341-5.861c-1.339-3.357-4.641-6.321-7.512-8.391-2.729-1.969-7.245-3.654-10.025-.826-2.036,2.072-2.124,5.716-1.1,8.276a6.569,6.569,0,0,0,1.129,1.923c.5.576,1.221.773,1.731,1.324a2.866,2.866,0,0,1,.269,3.694c-1.072,1.693-3.246,2.147-4.848,3.24a17.932,17.932,0,0,0-3.744,3.317,9.911,9.911,0,0,0-1.7,2.845c-.572,1.447-.946,3.521-2.446,4.291-2.291,1.176-.27,4.629,2.019,3.454Z"/><path class="h" d="M62.191,333.767c.031-2.389.612-11.885.746-18.372,0,0,.286-3.756.525-7.006,9.247,2.153,83.109,1.584,100.089.191.179,6.068.28,22.333.4,25.185l-50.964-.85Z"/><path class="e" d="M76.68,106.45c-.026-7.651.123-15.217,3.591-22.228A32.9,32.9,0,0,1,96.553,69.238a20.414,20.414,0,0,0,4.328-2.158,9.28,9.28,0,0,0,3.027-4.436l-2.938,1.2c.95.456,2.033.545,2.966.992a2.072,2.072,0,0,0,2.736-.717,6.849,6.849,0,0,1,2.911-2.06,5.1,5.1,0,0,1,1.721-.423.914.914,0,0,1,.445.035c-.122-.031.189.213.032-.02.642.951,2.287,1.486,3.141.405a19.759,19.759,0,0,0,2.431-4.33l-2.737.718a7.336,7.336,0,0,1,2.595,2.585,12.7,12.7,0,0,0,2.5,2.665,27.623,27.623,0,0,0,6.679,3.938c2.07.872,4.293,1.249,6.276,2.325a28.725,28.725,0,0,1,6.181,4.7c3.187,3.079,6.494,6.785,8.183,10.945a49.168,49.168,0,0,1,2.961,12.816c.519,4.515.908,9.5-.129,13.877-.594,2.5,3.262,3.571,3.857,1.063a41.376,41.376,0,0,0,.461-13.079,60.682,60.682,0,0,0-2.812-14.442A34.971,34.971,0,0,0,143.607,73.8c-3.646-3.964-8.015-7.612-13.306-9.024a22.338,22.338,0,0,1-7.471-3.7c-2.389-1.789-3.491-4.659-6.195-6.1a2.02,2.02,0,0,0-2.736.717,16.214,16.214,0,0,1-1.806,3.52l3.142.405c-2.975-4.41-9.665-.766-12.017,2.468l2.737-.718c-.95-.455-2.033-.544-2.966-.992a2.04,2.04,0,0,0-2.938,1.2c-1.067,2.889-3.9,3.408-6.433,4.624A40.368,40.368,0,0,0,83.8,73.011,34.344,34.344,0,0,0,73.284,93.5a88.116,88.116,0,0,0-.6,12.953c.009,2.574,4.009,2.579,4,0Z"/><path class="e" d="M82.233,112.58c2.135-5.812,4.09-11.81,7.114-17.239a7,7,0,0,1,.843-1.4,6.453,6.453,0,0,1,1.218-.821,33.541,33.541,0,0,1,3.756-1.946,47.953,47.953,0,0,1,7.4-2.667l-1.542-.2c2.35,1.11,4.415,3.376,6.121,5.288a2.017,2.017,0,0,0,2.829,0,16.221,16.221,0,0,1,4.19-3.652H112.14c1.6.787,2.933,2.45,4.166,3.7a2.025,2.025,0,0,0,2.828,0,69.391,69.391,0,0,1,6.25-5.134l-1.946.514a30.254,30.254,0,0,1,7.965,2.316,15.466,15.466,0,0,1,3.953,2.262,11.67,11.67,0,0,1,2.171,3.558c1.293,2.713,2.288,5.605,3.321,8.425a69.447,69.447,0,0,1,2.893,9.25c.539,2.516,4.395,1.451,3.857-1.063A71.749,71.749,0,0,0,144.513,104a91.9,91.9,0,0,0-3.726-9.259,12.178,12.178,0,0,0-2.739-4.075,21.879,21.879,0,0,0-4.626-2.781,33.791,33.791,0,0,0-8.814-2.7c-1.756-.262-3.225,1.431-4.535,2.452a34.175,34.175,0,0,0-3.767,3.181h2.828c-.906-.921-1.825-1.833-2.794-2.688-.91-.8-2.134-2.057-3.456-1.878-1.183.16-2.273,1.274-3.136,2.019a31.034,31.034,0,0,0-2.608,2.495h2.829a28.69,28.69,0,0,0-6.381-5.621c-1.424-.844-2.645-.371-4.1.1-1.429.465-2.839.99-4.228,1.564a49.459,49.459,0,0,0-4.616,2.136,12.152,12.152,0,0,0-3.634,2.53,19.978,19.978,0,0,0-2.1,3.7c-.684,1.371-1.3,2.772-1.9,4.184-1.684,4-3.145,8.084-4.64,12.154-.889,2.42,2.976,3.464,3.857,1.063Z"/><path class="e" d="M94.158,154.457c-.1,1.105-.21,2.061-.334,2.858-.114.722-.226,1.444-.343,2.166-.055.339-.115.678-.2,1.012-.044.179-.306.693-.256.835q.188-.429.055-.137c-.035.075-.073.149-.112.222a3.972,3.972,0,0,0-.23.375c-.084.122-.044.073.122-.146-.055.068-.112.135-.171.2-.125.137-.262.258-.4.384-.167.136-.149.123.055-.042-.085.06-.171.118-.259.173-.14.089-.285.171-.431.247-.105.055-.211.107-.318.157.195-.077.18-.07-.046.019l-.271.1q-.622.231-1.245.465c-.969.363-1.95.708-2.905,1.109a2.056,2.056,0,0,0-1.4,2.46,2.021,2.021,0,0,0,2.461,1.4c1.541-.648,3.143-1.146,4.689-1.784a7.336,7.336,0,0,0,3.736-2.987,9.446,9.446,0,0,0,1.034-3.39c.286-1.9.581-3.783.759-5.694a2.007,2.007,0,0,0-2-2,2.054,2.054,0,0,0-2,2Z"/><path class="e" d="M127.967,155.433c.193,1.673.464,3.333.725,5a8.112,8.112,0,0,0,1.215,3.456,7.05,7.05,0,0,0,1.758,1.743,6.307,6.307,0,0,0,.887.522c.261.128.53.237.8.349.06.025.476.246.542.214-.051.025-.633-.273-.169-.067l.534.241q.682.309,1.363.622c.893.409,1.782.827,2.681,1.224a2.051,2.051,0,0,0,2.736-.717,2.023,2.023,0,0,0-.717-2.736c-1.524-.675-3.026-1.4-4.547-2.074-.1-.043-.192-.086-.289-.127-.175-.076-.351-.152-.528-.223-.062-.025-.472-.193-.3-.114.213.1-.112-.059-.16-.084-.075-.037-.149-.075-.222-.115q-.207-.114-.405-.243c-.184-.12-.3-.265-.063-.031-.112-.111-.238-.208-.348-.321-.045-.046-.087-.1-.133-.142-.112-.11-.034-.145-.005.007s.087.13.006,0c-.032-.051-.068-.1-.1-.153-.065-.1-.125-.207-.181-.315-.027-.053-.052-.107-.08-.161-.133-.253.071.084.06.148.026-.156-.177-.523-.22-.687-.068-.259-.122-.521-.17-.784-.108-.595-.183-1.2-.282-1.793-.073-.443-.15-.884-.215-1.328-.016-.106-.031-.212-.047-.318-.01-.073-.043-.328-.016-.114-.038-.292-.072-.585-.106-.878a2.05,2.05,0,0,0-2-2c-.981.044-2.129.887-2,2Z"/><path class="e" d="M60.937,315.4c-.131,6.127-.653,12.246-.746,18.372-.039,2.575,3.961,2.576,4,0,.093-6.126.615-12.245.746-18.372.055-2.575-3.945-2.574-4,0Z"/><path class="e" d="M161.512,309.464c.313,8.1.12,16.206.435,24.3.1,2.566,4.1,2.579,4,0-.315-8.095-.122-16.2-.435-24.3-.1-2.566-4.1-2.579-4,0Z"/><path class="e" d="M110.715,310.01c0,7.636.264,15.269.268,22.905,0,2.574,4,2.578,4,0,0-7.636-.264-15.269-.268-22.905,0-2.573-4-2.578-4,0Z"/><path class="e" d="M104.99,333.935c7.363-2.636,14.413-6.062,21.847-8.509,2.434-.8,1.392-4.665-1.063-3.857-7.434,2.447-14.484,5.873-21.848,8.508a2.053,2.053,0,0,0-1.4,2.461,2.019,2.019,0,0,0,2.461,1.4Z"/><path class="e" d="M139.769,168.312c5.645,1.543,11.245,3.3,16.732,5.338a77.656,77.656,0,0,1,8.756,3.759,44.043,44.043,0,0,1,7.958,5.558c3.369,2.832,6.607,6.129,8.305,10.266a2.065,2.065,0,0,0,2.46,1.4,2.013,2.013,0,0,0,1.4-2.46,29.578,29.578,0,0,0-7.518-10.436,52.941,52.941,0,0,0-8.889-6.848c-5.934-3.482-12.712-5.7-19.235-7.783q-4.424-1.416-8.9-2.648c-2.486-.68-3.547,3.178-1.063,3.857Z"/><path class="e" d="M61.183,309.48c1.518,1.208,3.83,1.2,5.672,1.374,3.352.309,6.723.44,10.087.557,10.291.357,20.594.411,30.89.407q16.881-.007,33.761-.367c4.491-.1,8.983-.223,13.472-.4,1.726-.07,3.452-.148,5.177-.245,1.6-.091,4.24.17,5.13-1.365a19.839,19.839,0,0,0,1.983-7.033,83.038,83.038,0,0,0,.771-9.914,201.158,201.158,0,0,0-.9-22.868q-.233-2.586-.521-5.168a2.059,2.059,0,0,0-2-2,2.014,2.014,0,0,0-2,2c.712,6.382,1.182,12.8,1.374,19.213a104.134,104.134,0,0,1-.586,17.674,31.608,31.608,0,0,1-.741,3.744,9.946,9.946,0,0,1-.92,2.483l1.727-.99c-5.478.446-10.986.582-16.478.735-8.075.224-16.154.351-24.232.428-16.051.153-32.137.242-48.178-.417-2.71-.111-5.423-.238-8.123-.5-.47-.046-.938-.1-1.406-.156-.386-.043.527.08.155.022-.117-.019-.234-.032-.35-.052-.157-.027-.315-.05-.472-.079-.269-.051-.533-.131-.8-.182-.252-.048-.517-.308.141.083-.2-.118-.4-.282.192.19a2.063,2.063,0,0,0-2.829,0,2.014,2.014,0,0,0,0,2.828Z"/><path class="e" d="M60.844,208.821c-1.252,12.791-1.815,25.676-2.339,38.512-.642,15.729-1.247,31.6-.282,47.324a84.951,84.951,0,0,0,.96,9.115,13.627,13.627,0,0,0,1.688,5.3c1.434,2.121,4.9.122,3.453-2.018-.153-.227-.256-.471-.39-.707-.08-.14.172.52,0,0-.06-.184-.13-.364-.189-.548a21.083,21.083,0,0,1-.611-2.542c-.1-.52-.179-1.043-.258-1.566-.016-.1-.03-.2-.044-.305-.077-.528.055.445-.014-.095q-.063-.492-.12-.985c-.154-1.34-.272-2.685-.37-4.03-.514-7.051-.56-14.138-.523-21.2.086-16.167.773-32.339,1.741-48.476.355-5.927.717-11.863,1.295-17.774a2.014,2.014,0,0,0-2-2,2.045,2.045,0,0,0-2,2Z"/><path class="e" d="M40.219,155.167c-1.073,11.448-.334,22.921-.342,34.391a2.03,2.03,0,0,0,2.531,1.928c7.52-1.325,13.56-6.665,19.376-11.226a48.783,48.783,0,0,1,9.269-5.9c3.208-1.522,6.524-2.79,9.782-4.2a2.013,2.013,0,0,0,.718-2.736,2.053,2.053,0,0,0-2.737-.718c-3.258,1.407-6.574,2.674-9.782,4.2a49.635,49.635,0,0,0-9.2,5.846c-5.587,4.335-11.281,9.612-18.486,10.881l2.532,1.929c.008-11.47-.731-22.943.342-34.391a2.015,2.015,0,0,0-2-2,2.043,2.043,0,0,0-2,2Z"/><path class="e" d="M41.915,153.137q-7.3-.6-14.613-1.15c-4.156-.31-8.359-.766-12.531-.763a2.019,2.019,0,0,0-1.929,1.468,279.376,279.376,0,0,0-3.949,42.262c-.063,4.2,0,8.411.282,12.6.279,4.127.485,8.614,2.03,12.49,1.472,3.69,4.144,7.593,8.171,8.735,4.163,1.181,8.8.857,13.027.284,5.184-.7,9.914-2.4,14.873-3.968,4.71-1.49,9.5-2.711,14.217-4.168,2.452-.758,1.406-4.62-1.063-3.857-3.859,1.191-7.772,2.205-11.639,3.372-4.263,1.286-8.423,2.973-12.776,3.939a41.849,41.849,0,0,1-12.743,1.036A8.734,8.734,0,0,1,18.8,224.1a11.565,11.565,0,0,1-3.291-4.172c-1.772-3.484-1.981-7.66-2.269-11.5-.3-3.986-.391-7.987-.362-11.984.059-8.076.6-16.148,1.408-24.182.625-6.218,1.374-12.359,2.416-18.511l-1.929,1.468c4.172,0,8.375.453,12.531.763q7.309.544,14.613,1.15c2.566.21,2.552-3.791,0-4Z"/><path class="e" d="M137.382,166.288c-.08.249-.17.493-.262.738-.124.328.015-.033.037-.084-.061.137-.121.275-.187.41a17.5,17.5,0,0,1-.937,1.683,16.318,16.318,0,0,1-2.673,3.254,24.336,24.336,0,0,1-10.307,5.831c-9.344,2.712-20.777,1.673-28.389-4.828a20.767,20.767,0,0,1-3.714-4.056,16.812,16.812,0,0,1-1.108-1.921c-.073-.147-.141-.3-.2-.449.193.456,0-.022-.025-.094-.1-.307-.2-.607-.276-.92-.6-2.5-4.456-1.443-3.857,1.063.76,3.177,3.007,6.052,5.317,8.265a29.59,29.59,0,0,0,12.938,7.112c10.492,2.756,23.174,1,31.506-6.3a19.934,19.934,0,0,0,6-8.645c.781-2.459-3.079-3.512-3.857-1.063Z"/><path class="e" d="M158.957,205.1a51.181,51.181,0,0,1,.316,7.2,2.007,2.007,0,0,0,2,2,2.052,2.052,0,0,0,2-2,51.181,51.181,0,0,0-.316-7.2,2,2,0,0,0-4,0Z"/><path class="a" d="M120.7,190.614a14.937,14.937,0,0,1-.17-3.037c-2.738-.016-4.821-1.873-6.348-3.47a67.422,67.422,0,0,1-4.932-6.122c-1.43-1.892-4.534-3.374-6-5.278-1.109-1.358-3.146-4.481-1.9-7.958.72-2.008.991-5.849,3.274-6.695a2.741,2.741,0,0,1,1.922.021c.118-.564.208-.989.208-.989a23.446,23.446,0,0,1,1.338-4.044c.982-2.044,5.9-4.279,8.646-4.192,4.783.15,8.964.048,12.578,3.3,3.36,3.027,4.747,7.265,5.3,11.674.513,4.056.424,8.209,1.568,12.211a48.611,48.611,0,0,1,1.569,6.654Z"/><path class="e" d="M139.694,182.16a70.022,70.022,0,0,0-1.7-7.116,42.689,42.689,0,0,1-1.014-7.453c-.35-4.481-.862-9.035-3.158-13A14.561,14.561,0,0,0,124,147.409c-3.665-.7-7.961-1.048-11.515.278a13.585,13.585,0,0,0-5.2,3.1c-1.425,1.512-1.993,3.8-2.46,5.767-.593,2.5,3.263,3.571,3.857,1.063a11.41,11.41,0,0,1,1.343-3.909,8.17,8.17,0,0,1,3.358-2.106,10.468,10.468,0,0,1,4.369-.723,32.394,32.394,0,0,1,5.18.387,10.893,10.893,0,0,1,7.8,6.009c1.79,3.467,2.018,7.446,2.32,11.26a44.45,44.45,0,0,0,1.026,7.339c.617,2.453,1.373,4.839,1.753,7.348a2.015,2.015,0,0,0,2.461,1.4,2.051,2.051,0,0,0,1.4-2.46Z"/><path class="e" d="M119.063,154.616c-.343.145.483-.2.052-.022l-.291.122c-.341.144-.682.287-1.023.432-.409.174-.817.352-1.222.537a20.375,20.375,0,0,0-2.547,1.358,9.168,9.168,0,0,0-4.1,4.944,2,2,0,0,0,3.857,1.063c.03-.1.061-.2.1-.3.023-.065.048-.13.074-.193l-.12.288c.118-.156.185-.374.288-.543.053-.088.109-.175.167-.259.094-.137.317-.337-.068.072.143-.152.267-.321.411-.473s.3-.3.458-.442c.081-.072.162-.142.245-.211.06-.05.326-.253.053-.047s.045-.031.1-.074c.09-.065.181-.128.272-.19.185-.126.374-.246.565-.363a22.238,22.238,0,0,1,2.365-1.226c.4-.183.811-.358,1.219-.532.335-.143-.438.184-.082.034l.244-.1,1-.421a1.992,1.992,0,0,0,.919-1.2,2.043,2.043,0,0,0-.2-1.541,2.019,2.019,0,0,0-1.195-.919,2.357,2.357,0,0,0-1.542.2Z"/><path class="e" d="M121.884,160.468a15.378,15.378,0,0,0-5.261,2.027,14.342,14.342,0,0,0-4.266,3.074,8.83,8.83,0,0,0-1.24,8.615c1.286,2.87,5.2,4.406,7.635,1.866a4.667,4.667,0,0,0,.839-1.284c.125-.27.233-.548.345-.824.025-.063.3-.734.169-.437a2.421,2.421,0,0,1,.531-.882,3.344,3.344,0,0,1,.432-.272c.57-.341.277.295-.075-.155l-.514-.882c.518,1.251-.179,2.788-.122,4.1a9.032,9.032,0,0,0,1.386,4.2c1.331,2.287,2.862,4.455,4.4,6.6a2.059,2.059,0,0,0,2.737.718,2.017,2.017,0,0,0,.717-2.737c-1.707-2.377-3.785-4.909-4.955-7.621-.612-1.42-.03-2.854.006-4.319.049-1.949-1-4.062-3.222-4a5.462,5.462,0,0,0-3.838,1.761,5.831,5.831,0,0,0-.941,1.458c-.141.308-.267.625-.394.939-.039.1-.26.631-.12.322-.085.189-.193.364-.281.549-.035.073-.033-.08.1-.084-.493.012-.432.269-.853-.141-.74-.72-.616-2.021-.493-2.953a4.341,4.341,0,0,1,2.509-3.276,15.946,15.946,0,0,1,5.828-2.517,2.013,2.013,0,0,0,1.4-2.46,2.053,2.053,0,0,0-2.46-1.4Z"/><path class="e" d="M110.706,163.793c.884-3.48-1.066-7.941-5.158-7.9-3.872.04-4.966,3.992-5.749,7.051a12.958,12.958,0,0,0-.666,5.7,11.258,11.258,0,0,0,2.115,4.709,18.442,18.442,0,0,0,4.01,3.72,19.6,19.6,0,0,1,3.933,4.127c2.86,3.753,6.2,8.171,11.343,8.373l-2-2a14.858,14.858,0,0,0,.17,3.037,2.065,2.065,0,0,0,2,2,2.012,2.012,0,0,0,2-2,14.858,14.858,0,0,1-.17-3.037,2.026,2.026,0,0,0-2-2,6.9,6.9,0,0,1-4.459-2.4,45.428,45.428,0,0,1-4.262-5.095,20.118,20.118,0,0,0-4.226-4.228,13.864,13.864,0,0,1-3.268-3.055,6.557,6.557,0,0,1-1.325-4.414,30.365,30.365,0,0,1,1.2-4.444c.207-.681.6-2.142,1.475-2.044,1.289.144,1.414,1.9,1.177,2.832-.634,2.5,3.223,3.561,3.858,1.064Z"/><path class="e" d="M181.722,193.711a86.446,86.446,0,0,1,5.615,19.716,73.139,73.139,0,0,1,.705,20.594c-.676,5.689-2.394,11.756-6.217,16.168a16.952,16.952,0,0,1-12.3,5.9c-9.308.354-19.125-5.075-24.865-12.227-.113-.14-.225-.282-.335-.424.194.251-.088-.118-.146-.2-.28-.378-.558-.757-.831-1.141-.583-.821-1.146-1.656-1.7-2.5-1.28-1.958-2.5-3.958-3.676-5.977-2.738-4.681-5.3-9.465-7.765-14.294-4.161-8.15-8.4-16.447-11.333-24.975-.195-.568-.38-1.14-.54-1.72l-.919,2.259a209.694,209.694,0,0,1,26.633-12.688l-2.258-.919c5.635,9.635,10.839,19.547,16.112,29.382,1.307,2.438,2.611,4.879,3.888,7.333,1.187,2.285,4.641.265,3.453-2.018-5.438-10.461-11.122-20.8-16.841-31.111-1.04-1.875-2.076-3.754-3.159-5.6a2.017,2.017,0,0,0-2.258-.919A216.978,216.978,0,0,0,115.4,191.446a2.038,2.038,0,0,0-.919,2.258,77.207,77.207,0,0,0,3.944,10.165c2.151,4.923,4.464,9.775,6.865,14.581,2.569,5.142,5.245,10.235,8.094,15.229a108.541,108.541,0,0,0,7.458,11.74c6.125,8.106,16.278,14.09,26.513,14.653a21.453,21.453,0,0,0,14.9-4.713c4.806-3.946,7.55-9.977,8.892-15.931a65.365,65.365,0,0,0,.849-21.225,93.435,93.435,0,0,0-4.884-21.632c-.591-1.647-1.245-3.27-1.933-4.879a2.013,2.013,0,0,0-2.737-.717,2.052,2.052,0,0,0-.717,2.736Z"/><path class="e" d="M114.269,151.009c2.009.049,4.17.721,6.311.584a7.733,7.733,0,0,0,6.2-3.407c2.916-4.5.516-11.38-4.983-12.18a8.461,8.461,0,0,0-3.922.29,26.242,26.242,0,0,1-3.13,1.393,4.082,4.082,0,0,1-2.634-.768,9.1,9.1,0,0,0-4.024-1.027,7.134,7.134,0,0,0-6.663,3.95,9.43,9.43,0,0,0-.055,7.686,7.243,7.243,0,0,0,6.379,4.544,14.742,14.742,0,0,0,3.806-.463c.565-.126,1.125-.273,1.689-.405.2-.048.4-.095.6-.138.142-.031.284-.057.427-.08q-.324.043,0,.021c2.566-.094,2.579-4.094,0-4s-6.378,2.417-8.494.115a5.219,5.219,0,0,1-1.155-4.259,3.265,3.265,0,0,1,3.463-2.971c1.879.009,3.294,1.426,5.111,1.736,2.222.38,3.684-.656,5.636-1.438,1.4-.562,3.406-.438,4.378.848a4.941,4.941,0,0,1,.444,4.556c-1.535,3.534-6.587,1.481-9.383,1.413C111.694,146.947,111.7,150.947,114.269,151.009Z"/><path class="e" d="M102.589,118.344a34.588,34.588,0,0,0-5.289-.214,2.064,2.064,0,0,0-1.414.585A2,2,0,0,0,97.3,122.13c.886,0,1.772,0,2.658.02a19.33,19.33,0,0,1,1.984.106l-.532-.071.116.016a2.183,2.183,0,0,0,1.541-.2,2,2,0,0,0,.717-2.737,1.936,1.936,0,0,0-1.2-.919Z"/><path class="e" d="M126.224,122.646l.116-.017-.532.072a19.032,19.032,0,0,1,1.983-.106c.886-.019,1.772-.021,2.659-.021a2.064,2.064,0,0,0,1.414-.586,2,2,0,0,0-1.414-3.414,34.588,34.588,0,0,0-5.289.215,2,2,0,0,0-1.2.919,2.039,2.039,0,0,0-.2,1.541,2.017,2.017,0,0,0,.919,1.2l.478.2a2.018,2.018,0,0,0,1.063,0Z"/><path class="e" d="M127.877,134.479a23.87,23.87,0,0,1,2.462,3.76l-.2-.478a7.618,7.618,0,0,1,.5,1.869,1.994,1.994,0,0,0,.919,1.2,2.039,2.039,0,0,0,1.541.2,2.017,2.017,0,0,0,1.195-.919l.2-.478a2.018,2.018,0,0,0,0-1.063,8.917,8.917,0,0,0-1.284-3.454c-.574-.92-1.274-1.755-1.881-2.653a2.123,2.123,0,0,0-1.2-.919,2,2,0,0,0-2.258,2.938Z"/><path class="e" d="M112.981,126.986a30.047,30.047,0,0,1,.7,3.207l-.072-.532a1.931,1.931,0,0,1,.012.443l.072-.532a1.134,1.134,0,0,1-.049.2l.2-.478a.76.76,0,0,1-.071.128l.313-.4a.682.682,0,0,1-.105.1l.405-.313a2.124,2.124,0,0,1-.254.135l.478-.2a1.891,1.891,0,0,1-.428.125l.531-.072a1.735,1.735,0,0,1-.4,0l.531.071c-.151-.021-.3-.058-.451-.078a1.516,1.516,0,0,0-.8-.036,1.492,1.492,0,0,0-.744.237,2,2,0,0,0-.717,2.737,1.913,1.913,0,0,0,1.2.919c.377.051.742.145,1.125.162a3.637,3.637,0,0,0,1.7-.41,2.525,2.525,0,0,0,1.378-1.657,4.014,4.014,0,0,0-.015-1.745c-.175-1.033-.413-2.057-.679-3.07a2.063,2.063,0,0,0-.919-1.2,2,2,0,0,0-2.938,2.259Z"/><path class="i" d="M203.557,99.236c-1.968-4.335-7.59-6.25-12.043-5.626-7.309,1.025-14.345,7.73-14.545,14.9a.574.574,0,0,0,.645.566,50.769,50.769,0,0,1,16.576.894c5.88,1.157,12.469-2.488,9.633-10.088C203.74,99.657,203.652,99.443,203.557,99.236Z"/><path class="e" d="M205.284,98.226c-2.33-4.855-8.306-7.2-13.457-6.655a20.038,20.038,0,0,0-14.083,8.7,15.088,15.088,0,0,0-2.76,7.885c-.045,1.915,1.267,2.934,3.11,2.86,1.665-.066,3.313-.266,4.985-.269a52.208,52.208,0,0,1,9.69.973,14.493,14.493,0,0,0,7.347-.121,9.158,9.158,0,0,0,5.541-4.546c1.37-2.878.852-6-.373-8.832a2.012,2.012,0,0,0-2.736-.717,2.05,2.05,0,0,0-.717,2.736c.768,1.773,1.081,4.074-.148,5.716a6.489,6.489,0,0,1-5.022,2.211,18.183,18.183,0,0,1-3.7-.464c-1.657-.292-3.325-.534-5-.7a47.061,47.061,0,0,0-4.88-.251q-1.331,0-2.66.081a14.379,14.379,0,0,1-2.593.257l.882.515-.237-.2.514.882c-.266-.932.466-2.654.817-3.49a13.763,13.763,0,0,1,2.19-3.54,16.763,16.763,0,0,1,6.737-4.86c4.538-1.718,10.788-.968,13.1,3.853C202.944,102.565,206.394,100.538,205.284,98.226Z"/><path class="e" d="M204.678,141.1c-.147-.071-.306-.124-.453-.2a1.686,1.686,0,0,1-.37-.248,2.619,2.619,0,0,1-.332-.282,1.624,1.624,0,0,1-.465-1.615c.167-.476.616-.813.777-1.291.292-.869-.519-2.006-.148-2.844a1.724,1.724,0,0,1,1.476-1.04c.532-.109,1.17-.155,1.449-.621a2.873,2.873,0,0,0,.218-.768,1.587,1.587,0,0,1,1.55-1.284,2.2,2.2,0,0,1,1.159.216,2.857,2.857,0,0,0,.7.385c.528.128,1.009-.293,1.46-.595a1.933,1.933,0,0,1,1.921-.345c.8.443.952,1.726,1.775,2.129.454.222,1.009.138,1.465.354a1.622,1.622,0,0,1,.822,1.466,2.514,2.514,0,0,1-.032.434,1.664,1.664,0,0,1-.083.437,2.864,2.864,0,0,0-.242.762c-.023.543.485.932.869,1.316a1.915,1.915,0,0,1,.639,1.837c-.278.873-1.433,1.25-1.668,2.136a2.439,2.439,0,0,0-.031.778,1.976,1.976,0,0,1-.643,1.512c-1.074.818-2.237-.1-3.262.19-1.126.535-.892,2.258-2.918,2.07a.951.951,0,0,1-.408-.123c-.42-.26-.661-.753-1.091-1-.8-.456-1.875.1-2.692-.315a1.914,1.914,0,0,1-.858-1.745c0-.543.076-1.178-.326-1.543A1.1,1.1,0,0,0,204.678,141.1Z"/><path class="e" d="M205.688,139.373a6.385,6.385,0,0,1-.647-.308c.141.08-.032-.119-.066-.052-.016.032.033.13.015.174-.339.816.012.18.12.024a3.944,3.944,0,0,0,.649-3.282c-.029-.143-.067-.284-.1-.426l-.05-.213c-.051-.251-.058-.282-.021-.091-.083.1-.045.216-.154.321.022-.021-.294.178-.293.14a5.334,5.334,0,0,1,1.171-.269,3.457,3.457,0,0,0,1.593-.858,3.046,3.046,0,0,0,.8-1.544c.031-.165-.034-.311.095-.341a2.643,2.643,0,0,1-.29.234c-.068.09-.344-.071.06.022.468.106.024-.014-.037-.05a3.64,3.64,0,0,0,1.709.658,3.3,3.3,0,0,0,1.871-.467,6.5,6.5,0,0,0,1-.636c0,.1-.707-.1-.69-.327-.016.215.523.882.653,1.073a3.7,3.7,0,0,0,2.521,1.654c.205.037.865.277.2-.087-.008,0-.148-.144-.108-.157a2.273,2.273,0,0,1-.04.39q-.012-.272-.11.156a1.517,1.517,0,0,0-.143.511,3.309,3.309,0,0,0,1.158,3.044c.044.045.362.393.381.387-.079.024-.049-.177-.045-.185.278-.541-.1-.114-.322.088a3.93,3.93,0,0,0-1.445,2.743c-.009.177.015.347.01.522.009-.336-.1.141.019.022,0,0,.157-.127.153-.132.127-.029.12-.041-.021-.035s-.148-.008-.022,0a4.312,4.312,0,0,0-3.167.184A4.725,4.725,0,0,0,210.529,144c-.046.076-.1.15-.149.224.369-.542-.374.218.137-.158.367-.269-.013-.049.136-.047.155-.017.115-.02-.118-.009a1.665,1.665,0,0,1,.458.181c.071-.18-1.036-.962-1.172-1.044a3.815,3.815,0,0,0-2-.462c-.2,0-.392.025-.588.031-.518.018-.53-.141-.026.194l.071.088c.045.138.048.139.008,0s-.039-.133-.02.019a3.813,3.813,0,0,1-.007-.414,3.363,3.363,0,0,0-1.576-3.23c-2.255-1.245-4.276,2.208-2.019,3.454.541.3-.556-.382-.405-.647a1.66,1.66,0,0,0,0,.527,5.544,5.544,0,0,0,.2,1.455,3.523,3.523,0,0,0,2.336,2.407,4.625,4.625,0,0,0,1.44.143c.108,0,.938.02.565-.115-.23-.083.08.113.144.182.121.131.238.262.372.381a3.231,3.231,0,0,0,1.992.833,4,4,0,0,0,3.814-2.206c.2-.334.185-.068-.006-.031.047-.009.13-.159.183-.191l-.187.152q-.816.174-.256.154c-.277-.095.157.032.23.045a4.525,4.525,0,0,0,3.3-.385,3.714,3.714,0,0,0,1.668-2.581,3.109,3.109,0,0,0,.073-.729c.05.279-.076-.657-.09-.12-.006.2-.025.026.13-.113.175-.156.355-.311.522-.475,1.707-1.687,1.385-3.982-.236-5.6l-.153-.146q-.244-.276-.091-.067l.087.728.094-.251a3.638,3.638,0,0,0,.278-1.436,3.708,3.708,0,0,0-1.415-3.143,3.629,3.629,0,0,0-1.6-.644c-.059-.011-.5-.084-.5-.091l.352.222q-.234-.249-.039-.024a6.419,6.419,0,0,0-1.692-2.115,3.664,3.664,0,0,0-3.69.011c-.22.114-.948.617-.944.619l.37.022q.626.13.2-.089a2.7,2.7,0,0,0-1.007-.451,4.128,4.128,0,0,0-3.182.37,3.685,3.685,0,0,0-1.235,1.29,13.851,13.851,0,0,0-.611,1.715l.514-.882q-.339.379.253-.07a3.566,3.566,0,0,1-.408.1c-.264.057-.533.089-.791.169a3.844,3.844,0,0,0-1.645.944,3.99,3.99,0,0,0-.753,4.088c.045.252.058.284.039.1q-.015.522.13-.223a5.469,5.469,0,0,0-.367.537,3.4,3.4,0,0,0-.646,2.212,4.165,4.165,0,0,0,2.659,3.423,2.066,2.066,0,0,0,2.736-.718A2.014,2.014,0,0,0,205.688,139.373Z"/><path class="e" d="M53.593,31.918c-.413-.2-.86-.347-1.273-.55a4.709,4.709,0,0,1-1.038-.7,7.206,7.206,0,0,1-.929-.791,4.559,4.559,0,0,1-1.3-4.53c.468-1.335,1.729-2.279,2.18-3.62.819-2.437-1.456-5.624-.415-7.975.9-2.035,2.263-2.533,4.137-2.917,1.493-.3,3.282-.435,4.066-1.742a8.032,8.032,0,0,0,.61-2.154,4.45,4.45,0,0,1,4.346-3.6,6.168,6.168,0,0,1,3.252.605,8.093,8.093,0,0,0,1.962,1.08c1.481.36,2.83-.822,4.1-1.67,1.59-1.064,3.712-1.891,5.387-.967,2.251,1.243,2.669,4.842,4.979,5.971,1.271.622,2.828.388,4.107.993a4.558,4.558,0,0,1,2.307,4.111,7.389,7.389,0,0,1-.09,1.218,4.757,4.757,0,0,1-.235,1.227,8.035,8.035,0,0,0-.677,2.135C89,19.569,90.418,20.662,91.5,21.738c1.354,1.352,2.372,3.328,1.792,5.151-.78,2.45-4.02,3.507-4.677,5.992-.361,1.368.172,2.85-.172,4.223a4.558,4.558,0,0,1-3.582,3.064c-2.46.524-5-.974-7.285-.332-2.233,1.06-2.559,3.784-4.565,5.1a4.558,4.558,0,0,1-4.7.4c-1.218-.72-1.9-2.14-3.125-2.844-2.23-1.28-5.259.284-7.549-.883-1.706-.869-2.4-2.981-2.407-4.894-.008-1.524.214-3.3-.915-4.328A3.04,3.04,0,0,0,53.593,31.918Z"/><path class="h" d="M80.727,20.278c-1.917.492-3.879.994-5.049,1.3a.42.42,0,0,0-.262.614c.845,1.47,3.6,2.3,6.216,1.589,2.631-.653,4.639-2.71,4.665-4.405a.421.421,0,0,0-.527-.41C84.6,19.266,82.641,19.778,80.727,20.278Z"/><path class="h" d="M62.868,20.278c1.917.492,3.879.994,5.049,1.3a.42.42,0,0,1,.262.614c-.845,1.47-3.6,2.3-6.216,1.589-2.631-.653-4.639-2.71-4.665-4.405a.421.421,0,0,1,.527-.41C58.994,19.266,60.954,19.778,62.868,20.278Z"/><path class="e" d="M54.6,30.191c-1.728-.765-4.834-2.445-3.353-4.77a14.518,14.518,0,0,0,1.843-2.994,7.019,7.019,0,0,0,.15-3.511c-.279-1.677-1.5-4.032.113-5.387,1.426-1.2,3.858-.839,5.505-1.692a4.655,4.655,0,0,0,2.311-2.715c.333-1,.316-2.084,1-2.947a2.33,2.33,0,0,1,1.971-.841,5.011,5.011,0,0,1,3.021.955c2.67,1.588,4.824.3,7.125-1.2.826-.54,2.014-1.305,3.058-1.067.778.178,1.21.956,1.589,1.588,1.088,1.812,2.016,3.733,4.054,4.633,1.935.855,4.694.138,5.053,2.872a7.6,7.6,0,0,1-.715,3.5,4.663,4.663,0,0,0,.313,3.742c.985,1.812,3.83,3.161,3.812,5.431-.013,1.7-2.427,2.934-3.408,4.1a6.2,6.2,0,0,0-1.483,3.144c-.164,1.153.32,2.639-.091,3.723-.894,2.355-4.258,1.325-6.009,1.072a6.59,6.59,0,0,0-4.047.362,7.3,7.3,0,0,0-2.423,2.31c-1,1.416-2.585,4.517-4.839,3.014-1.011-.674-1.637-1.853-2.665-2.555a6.925,6.925,0,0,0-4.116-1c-1.135.028-2.542.384-3.631-.046a2.826,2.826,0,0,1-1.461-2.365c-.193-1.288.04-2.6-.184-3.891a4.765,4.765,0,0,0-2.5-3.466c-2.255-1.244-4.276,2.209-2.019,3.454,1.016.561.627,2.078.646,3.07a9.279,9.279,0,0,0,.911,4c1.33,2.648,3.933,3.468,6.726,3.327,1.026-.051,2.365-.341,3.309.175,1.1.6,1.783,1.927,2.832,2.651,2.5,1.725,6.1.945,8.151-1.125a16.2,16.2,0,0,0,1.942-2.71,2.208,2.208,0,0,1,2.431-1.327c1.371.138,2.7.564,4.092.574a7.5,7.5,0,0,0,4.208-1.231,6.073,6.073,0,0,0,2.538-3.414c.383-1.429-.307-3.18.262-4.515a6.519,6.519,0,0,1,1.806-1.941,10.206,10.206,0,0,0,2.347-2.718c1.455-2.764.272-5.874-1.74-8-.558-.589-1.993-1.493-1.984-2.416a6.73,6.73,0,0,1,.605-1.6,10.123,10.123,0,0,0,.39-2.567,6.534,6.534,0,0,0-4.123-6.594C86.823,6.9,85.408,7.1,84.4,6.5A6.627,6.627,0,0,1,82.629,4C81.291,1.684,79.406-.252,76.507.027a9.221,9.221,0,0,0-3.91,1.4c-.827.509-2.073,1.852-3.09,1.6-.544-.134-1.063-.712-1.581-.959a7.429,7.429,0,0,0-2.208-.636,8.052,8.052,0,0,0-4.114.354A6.388,6.388,0,0,0,58.72,4.156a7.709,7.709,0,0,0-.815,1.623,17.071,17.071,0,0,1-.53,2.1c-.487.87-2.074.847-2.956,1.029a8.109,8.109,0,0,0-3.669,1.6c-2.565,2.143-2.348,5.147-1.657,8.081.3,1.3.525,2.224-.254,3.367-.911,1.338-1.818,2.438-1.959,4.127-.306,3.656,2.687,6.223,5.7,7.558a2.064,2.064,0,0,0,2.737-.717A2.017,2.017,0,0,0,54.6,30.191Z"/><path class="e" d="M169.2,154.8c7.637,3.745,15.189,7.682,22.9,11.269a2.057,2.057,0,0,0,2.736-.717,2.017,2.017,0,0,0-.717-2.737c-7.713-3.587-15.266-7.524-22.9-11.269-2.3-1.129-4.333,2.319-2.019,3.454Z"/><path class="e" d="M167.215,81.006c11.726-5.382,23.54-10.614,35.511-15.43a2.064,2.064,0,0,0,1.4-2.46,2.014,2.014,0,0,0-2.46-1.4c-12.292,4.945-24.427,10.307-36.467,15.833a2.017,2.017,0,0,0-.717,2.737,2.046,2.046,0,0,0,2.736.717Z"/></svg>